<svg xmlns="http://www.w3.org/2000/svg" xmlns:xlink="http://www.w3.org/1999/xlink" contentStyleType="text/css" height="2176px" preserveAspectRatio="none" style="width:1441px;height:2176px;background:#FEFEFE;" version="1.1" viewBox="0 0 1441 2176" width="1441px" zoomAndPan="magnify"><title>**Analysis Flow** &#8212; Full &amp; Short Analysis + PDF Report</title><defs/><g><rect fill="#FEFEFE" height="2176" style="stroke:none;stroke-width:1;" width="1441" x="0" y="0"/><text fill="#000000" font-family="Inter" font-size="22" font-weight="bold" lengthAdjust="spacing" textLength="146.7061" x="444.8014" y="37.8379">Analysis Flow</text><text fill="#000000" font-family="Inter" font-size="22" font-weight="bold" lengthAdjust="spacing" textLength="396.1289" x="597.6198" y="37.8379">&#8212; Full &amp; Short Analysis + PDF Report</text><rect fill="#FFFFFF" height="1446.6484" style="stroke:#94A3B8;stroke-width:1;" width="10" x="240.1929" y="214.0156"/><rect fill="#FFFFFF" height="357.5391" style="stroke:#94A3B8;stroke-width:1;" width="10" x="240.1929" y="1722.3359"/><rect fill="#FFFFFF" height="83.5078" style="stroke:#94A3B8;stroke-width:1;" width="10" x="468.9761" y="241.8516"/><rect fill="#FFFFFF" height="55.6719" style="stroke:#94A3B8;stroke-width:1;" width="10" x="468.9761" y="454.5391"/><rect fill="#FFFFFF" height="27.8359" style="stroke:#94A3B8;stroke-width:1;" width="10" x="468.9761" y="1589.9922"/><rect fill="#FFFFFF" height="82.5078" style="stroke:#94A3B8;stroke-width:1;" width="10" x="597.9575" y="934.2578"/><rect fill="#FFFFFF" height="261.1953" style="stroke:#94A3B8;stroke-width:1;" width="10" x="746.9043" y="1108.2734"/><rect fill="#FFFFFF" height="82.5078" style="stroke:#94A3B8;stroke-width:1;" width="10" x="976.1328" y="1479.6484"/><rect fill="#FFFFFF" height="219.5234" style="stroke:#94A3B8;stroke-width:1;" width="10" x="1188.8506" y="1818.6797"/><rect fill="#FFFFFF" height="87.3438" rx="4" ry="4" style="stroke:#000000;stroke-width:1;" width="294.1809" x="15" y="340.3594"/><path d="M15,384.0313 L309.1809,384.0313 L309.1809,423.7031 A4,4 0 0 1 305.1809,427.7031 L19,427.7031 A4,4 0 0 1 15,423.7031 L15,384.0313 " fill="#FFFFFF" style="stroke:none;stroke-width:1;"/><rect fill="#FFFFFF" height="1128.4531" rx="4" ry="4" style="stroke:#000000;stroke-width:1;" width="1409.55" x="15" y="525.2109"/><path d="M15,568.8828 L1424.55,568.8828 L1424.55,871.75 A4,4 0 0 1 1420.55,875.75 L19,875.75 A4,4 0 0 1 15,871.75 L15,568.8828 " fill="#FFFFFF" style="stroke:none;stroke-width:1;"/><path d="M15,875.75 L1424.55,875.75 L1424.55,1649.6641 A4,4 0 0 1 1420.55,1653.6641 L19,1653.6641 A4,4 0 0 1 15,1649.6641 L15,875.75 " fill="#FFFFFF" style="stroke:none;stroke-width:1;"/><rect fill="#FFFFFF" height="182.8516" rx="4" ry="4" style="stroke:#000000;stroke-width:1;" width="570.6995" x="181.2048" y="898.5859"/><path d="M181.2048,1024.7656 L751.9043,1024.7656 L751.9043,1077.4375 A4,4 0 0 1 747.9043,1081.4375 L185.2048,1081.4375 A4,4 0 0 1 181.2048,1077.4375 L181.2048,1024.7656 " fill="#FFFFFF" style="stroke:none;stroke-width:1;"/><line style="stroke:#94A3B8;stroke-width:1;" x1="42" x2="42" y1="128.5078" y2="2097.875"/><line style="stroke:#94A3B8;stroke-width:1;" x1="244.2048" x2="244.2048" y1="128.5078" y2="2097.875"/><line style="stroke:#94A3B8;stroke-width:1;" x1="473.0696" x2="473.0696" y1="128.5078" y2="2097.875"/><line style="stroke:#94A3B8;stroke-width:1;" x1="602.8826" x2="602.8826" y1="128.5078" y2="2097.875"/><line style="stroke:#94A3B8;stroke-width:1;" x1="751.4216" x2="751.4216" y1="128.5078" y2="2097.875"/><line style="stroke:#94A3B8;stroke-width:1;" x1="980.3694" x2="980.3694" y1="128.5078" y2="2097.875"/><line style="stroke:#94A3B8;stroke-width:1;" x1="1193.5791" x2="1193.5791" y1="128.5078" y2="2097.875"/><line style="stroke:#94A3B8;stroke-width:1;" x1="1386.6355" x2="1386.6355" y1="128.5078" y2="2097.875"/><text fill="#000000" font-family="Inter" font-size="11" lengthAdjust="spacing" textLength="28.123" x="25" y="126.0908">Client</text><ellipse cx="42.0615" cy="62.6719" fill="#E0F2FE" rx="8" ry="8" style="stroke:#000000;stroke-width:1;"/><path d="M42.0615,70.6719 L42.0615,97.6719 M29.0615,78.6719 L55.0615,78.6719 M42.0615,97.6719 L29.0615,112.6719 M42.0615,97.6719 L55.0615,112.6719 " fill="none" style="stroke:#000000;stroke-width:1;"/><text fill="#000000" font-family="Inter" font-size="11" lengthAdjust="spacing" textLength="28.123" x="25" y="2108.2939">Client</text><ellipse cx="42.0615" cy="2119.7109" fill="#E0F2FE" rx="8" ry="8" style="stroke:#000000;stroke-width:1;"/><path d="M42.0615,2127.7109 L42.0615,2154.7109 M29.0615,2135.7109 L55.0615,2135.7109 M42.0615,2154.7109 L29.0615,2169.7109 M42.0615,2154.7109 L55.0615,2169.7109 " fill="none" style="stroke:#000000;stroke-width:1;"/><rect fill="#DBEAFE" height="41.6719" rx="4" ry="4" style="stroke:#64748B;stroke-width:1;" width="87.9761" x="201.2048" y="85.8359"/><text fill="#000000" font-family="Inter" font-size="11" lengthAdjust="spacing" textLength="73.9761" x="208.2048" y="104.2549">AnalysisRouter</text><text fill="#000000" font-family="Inter" font-size="11" lengthAdjust="spacing" textLength="53.2061" x="218.5898" y="118.0908">&#171;/analyze&#187;</text><rect fill="#DBEAFE" height="41.6719" rx="4" ry="4" style="stroke:#64748B;stroke-width:1;" width="87.9761" x="201.2048" y="2096.875"/><text fill="#000000" font-family="Inter" font-size="11" lengthAdjust="spacing" textLength="73.9761" x="208.2048" y="2115.2939">AnalysisRouter</text><text fill="#000000" font-family="Inter" font-size="11" lengthAdjust="spacing" textLength="53.2061" x="218.5898" y="2129.1299">&#171;/analyze&#187;</text><rect fill="#E8F5E9" height="27.8359" rx="4" ry="4" style="stroke:#64748B;stroke-width:1;" width="89.813" x="429.0696" y="99.6719"/><text fill="#000000" font-family="Inter" font-size="11" lengthAdjust="spacing" textLength="75.813" x="436.0696" y="118.0908">SessionService</text><rect fill="#E8F5E9" height="27.8359" rx="4" ry="4" style="stroke:#64748B;stroke-width:1;" width="89.813" x="429.0696" y="2096.875"/><text fill="#000000" font-family="Inter" font-size="11" lengthAdjust="spacing" textLength="75.813" x="436.0696" y="2115.2939">SessionService</text><rect fill="#E8F5E9" height="27.8359" rx="4" ry="4" style="stroke:#64748B;stroke-width:1;" width="108.1499" x="548.8826" y="99.6719"/><text fill="#000000" font-family="Inter" font-size="11" lengthAdjust="spacing" textLength="94.1499" x="555.8826" y="118.0908">TreeSearchService</text><rect fill="#E8F5E9" height="27.8359" rx="4" ry="4" style="stroke:#64748B;stroke-width:1;" width="108.1499" x="548.8826" y="2096.875"/><text fill="#000000" font-family="Inter" font-size="11" lengthAdjust="spacing" textLength="94.1499" x="555.8826" y="2115.2939">TreeSearchService</text><rect fill="#FEE2E2" height="27.8359" rx="4" ry="4" style="stroke:#64748B;stroke-width:1;" width="76.9653" x="713.4216" y="99.6719"/><text fill="#000000" font-family="Inter" font-size="11" lengthAdjust="spacing" textLength="62.9653" x="720.4216" y="118.0908">GeminiClient</text><rect fill="#FEE2E2" height="27.8359" rx="4" ry="4" style="stroke:#64748B;stroke-width:1;" width="76.9653" x="713.4216" y="2096.875"/><text fill="#000000" font-family="Inter" font-size="11" lengthAdjust="spacing" textLength="62.9653" x="720.4216" y="2115.2939">GeminiClient</text><rect fill="#E8F5E9" height="27.8359" rx="4" ry="4" style="stroke:#64748B;stroke-width:1;" width="85.5269" x="938.3694" y="99.6719"/><text fill="#000000" font-family="Inter" font-size="11" lengthAdjust="spacing" textLength="71.5269" x="945.3694" y="118.0908">PIIAnonymizer</text><rect fill="#E8F5E9" height="27.8359" rx="4" ry="4" style="stroke:#64748B;stroke-width:1;" width="85.5269" x="938.3694" y="2096.875"/><text fill="#000000" font-family="Inter" font-size="11" lengthAdjust="spacing" textLength="71.5269" x="945.3694" y="2115.2939">PIIAnonymizer</text><rect fill="#E8F5E9" height="27.8359" rx="4" ry="4" style="stroke:#64748B;stroke-width:1;" width="96.543" x="1145.5791" y="99.6719"/><text fill="#000000" font-family="Inter" font-size="11" lengthAdjust="spacing" textLength="82.543" x="1152.5791" y="118.0908">ReportGenerator</text><rect fill="#E8F5E9" height="27.8359" rx="4" ry="4" style="stroke:#64748B;stroke-width:1;" width="96.543" x="1145.5791" y="2096.875"/><text fill="#000000" font-family="Inter" font-size="11" lengthAdjust="spacing" textLength="82.543" x="1152.5791" y="2115.2939">ReportGenerator</text><text fill="#000000" font-family="Inter" font-size="11" lengthAdjust="spacing" textLength="48.9146" x="1359.6355" y="126.0908">MongoDB</text><path d="M1369.0928,78.6719 C1369.0928,68.6719 1387.0928,68.6719 1387.0928,68.6719 C1387.0928,68.6719 1405.0928,68.6719 1405.0928,78.6719 L1405.0928,104.6719 C1405.0928,114.6719 1387.0928,114.6719 1387.0928,114.6719 C1387.0928,114.6719 1369.0928,114.6719 1369.0928,104.6719 L1369.0928,78.6719 " fill="#FEE2E2" style="stroke:#000000;stroke-width:1.5;"/><path d="M1369.0928,78.6719 C1369.0928,88.6719 1387.0928,88.6719 1387.0928,88.6719 C1387.0928,88.6719 1405.0928,88.6719 1405.0928,78.6719 " fill="none" style="stroke:#000000;stroke-width:1.5;"/><text fill="#000000" font-family="Inter" font-size="11" lengthAdjust="spacing" textLength="48.9146" x="1359.6355" y="2108.2939">MongoDB</text><path d="M1369.0928,2120.7109 C1369.0928,2110.7109 1387.0928,2110.7109 1387.0928,2110.7109 C1387.0928,2110.7109 1405.0928,2110.7109 1405.0928,2120.7109 L1405.0928,2146.7109 C1405.0928,2156.7109 1387.0928,2156.7109 1387.0928,2156.7109 C1387.0928,2156.7109 1369.0928,2156.7109 1369.0928,2146.7109 L1369.0928,2120.7109 " fill="#FEE2E2" style="stroke:#000000;stroke-width:1.5;"/><path d="M1369.0928,2120.7109 C1369.0928,2130.7109 1387.0928,2130.7109 1387.0928,2130.7109 C1387.0928,2130.7109 1405.0928,2130.7109 1405.0928,2120.7109 " fill="none" style="stroke:#000000;stroke-width:1.5;"/><rect fill="#FFFFFF" height="1446.6484" style="stroke:#94A3B8;stroke-width:1;" width="10" x="240.1929" y="214.0156"/><rect fill="#FFFFFF" height="357.5391" style="stroke:#94A3B8;stroke-width:1;" width="10" x="240.1929" y="1722.3359"/><rect fill="#FFFFFF" height="83.5078" style="stroke:#94A3B8;stroke-width:1;" width="10" x="468.9761" y="241.8516"/><rect fill="#FFFFFF" height="55.6719" style="stroke:#94A3B8;stroke-width:1;" width="10" x="468.9761" y="454.5391"/><rect fill="#FFFFFF" height="27.8359" style="stroke:#94A3B8;stroke-width:1;" width="10" x="468.9761" y="1589.9922"/><rect fill="#FFFFFF" height="82.5078" style="stroke:#94A3B8;stroke-width:1;" width="10" x="597.9575" y="934.2578"/><rect fill="#FFFFFF" height="261.1953" style="stroke:#94A3B8;stroke-width:1;" width="10" x="746.9043" y="1108.2734"/><rect fill="#FFFFFF" height="82.5078" style="stroke:#94A3B8;stroke-width:1;" width="10" x="976.1328" y="1479.6484"/><rect fill="#FFFFFF" height="219.5234" style="stroke:#94A3B8;stroke-width:1;" width="10" x="1188.8506" y="1818.6797"/><rect fill="#FFFFFF" height="3" rx="4" ry="4" style="stroke:#FFFFFF;stroke-width:1;" width="1429.55" x="5" y="158.4258"/><line style="stroke:#000000;stroke-width:0.5;" x1="5" x2="1434.55" y1="158.4258" y2="158.4258"/><line style="stroke:#000000;stroke-width:0.5;" x1="5" x2="1434.55" y1="161.4258" y2="161.4258"/><rect fill="#FFFFFF" height="21.8359" rx="4" ry="4" style="stroke:#000000;stroke-width:1;" width="263.1382" x="588.2059" y="148.5078"/><text fill="#000000" font-family="Inter" font-size="11" font-weight="bold" lengthAdjust="spacing" textLength="246.082" x="594.2059" y="163.9268">POST /api/v1/analyze (analysis_type=full|short)</text><polygon fill="#000000" points="228.1929,210.0156,238.1929,214.0156,228.1929,218.0156,232.1929,214.0156" style="stroke:#000000;stroke-width:1;"/><line style="stroke:#000000;stroke-width:1.5;" x1="42.0615" x2="234.1929" y1="214.0156" y2="214.0156"/><text fill="#000000" font-family="Inter" font-size="11" lengthAdjust="spacing" textLength="144.5898" x="49.0615" y="195.7627">POST + X-Session-ID header</text><text fill="#000000" font-family="Inter" font-size="11" lengthAdjust="spacing" textLength="140.9375" x="49.0615" y="209.5986">+ analysis_type query param</text><polygon fill="#000000" points="456.9761,237.8516,466.9761,241.8516,456.9761,245.8516,460.9761,241.8516" style="stroke:#000000;stroke-width:1;"/><line style="stroke:#000000;stroke-width:1.5;" x1="250.1929" x2="462.9761" y1="241.8516" y2="241.8516"/><text fill="#000000" font-family="Inter" font-size="11" lengthAdjust="spacing" textLength="74.5938" x="257.1929" y="237.4346">get(session_id)</text><polygon fill="#000000" points="1375.0928,265.6875,1385.0928,269.6875,1375.0928,273.6875,1379.0928,269.6875" style="stroke:#000000;stroke-width:1;"/><line style="stroke:#000000;stroke-width:1.5;" x1="478.9761" x2="1381.0928" y1="269.6875" y2="269.6875"/><text fill="#000000" font-family="Inter" font-size="11" lengthAdjust="spacing" textLength="66.0161" x="485.9761" y="265.2705">FIND session</text><polygon fill="#000000" points="489.9761,293.5234,479.9761,297.5234,489.9761,301.5234,485.9761,297.5234" style="stroke:#000000;stroke-width:1;"/><line style="stroke:#000000;stroke-width:1.5;stroke-dasharray:2.0,2.0;" x1="483.9761" x2="1386.0928" y1="297.5234" y2="297.5234"/><text fill="#000000" font-family="Inter" font-size="11" lengthAdjust="spacing" textLength="88.6606" x="495.9761" y="293.1064">session document</text><polygon fill="#000000" points="261.1929,321.3594,251.1929,325.3594,261.1929,329.3594,257.1929,325.3594" style="stroke:#000000;stroke-width:1;"/><line style="stroke:#000000;stroke-width:1.5;stroke-dasharray:2.0,2.0;" x1="255.1929" x2="472.9761" y1="325.3594" y2="325.3594"/><text fill="#000000" font-family="Inter" font-size="11" lengthAdjust="spacing" textLength="39.1338" x="267.1929" y="320.9424">Session</text><path d="M19,340.3594 L72.8369,340.3594 L72.8369,346.1953 L62.8369,356.1953 L15,356.1953 L15,344.3594 A4,4 0 0 1 19,340.3594 " fill="#FFFFFF" style="stroke:#000000;stroke-width:1;"/><rect fill="none" height="87.3438" rx="4" ry="4" style="stroke:#000000;stroke-width:1;" width="294.1809" x="15" y="340.3594"/><text fill="#000000" font-family="Inter" font-size="11" font-weight="bold" lengthAdjust="spacing" textLength="12.8369" x="30" y="352.7783">alt</text><text fill="#000000" font-family="Inter" font-size="11" font-weight="bold" lengthAdjust="spacing" textLength="150.7129" x="87.8369" y="353.7783">[htoc_status = "processing"]</text><polygon fill="#000000" points="53.0615,372.0313,43.0615,376.0313,53.0615,380.0313,49.0615,376.0313" style="stroke:#000000;stroke-width:1;"/><line style="stroke:#000000;stroke-width:1.5;stroke-dasharray:2.0,2.0;" x1="47.0615" x2="239.1929" y1="376.0313" y2="376.0313"/><text fill="#000000" font-family="Inter" font-size="11" font-weight="bold" lengthAdjust="spacing" textLength="18.353" x="59.0615" y="371.6143">202</text><text fill="#000000" font-family="Inter" font-size="11" lengthAdjust="spacing" textLength="133.1387" x="80.4707" y="371.6143">"Document still processing"</text><line style="stroke:#000000;stroke-width:1;stroke-dasharray:2.0,2.0;" x1="15" x2="309.1809" y1="385.0313" y2="385.0313"/><text fill="#000000" font-family="Inter" font-size="11" font-weight="bold" lengthAdjust="spacing" textLength="113.0669" x="20" y="396.4502">[no anonymized_text]</text><polygon fill="#000000" points="53.0615,415.7031,43.0615,419.7031,53.0615,423.7031,49.0615,419.7031" style="stroke:#000000;stroke-width:1;"/><line style="stroke:#000000;stroke-width:1.5;stroke-dasharray:2.0,2.0;" x1="47.0615" x2="239.1929" y1="419.7031" y2="419.7031"/><text fill="#000000" font-family="Inter" font-size="11" font-weight="bold" lengthAdjust="spacing" textLength="18.353" x="59.0615" y="415.2861">400</text><text fill="#000000" font-family="Inter" font-size="11" lengthAdjust="spacing" textLength="89.1333" x="80.4707" y="415.2861">"No text available"</text><polygon fill="#000000" points="456.9761,450.5391,466.9761,454.5391,456.9761,458.5391,460.9761,454.5391" style="stroke:#000000;stroke-width:1;"/><line style="stroke:#000000;stroke-width:1.5;" x1="250.1929" x2="462.9761" y1="454.5391" y2="454.5391"/><text fill="#000000" font-family="Inter" font-size="11" lengthAdjust="spacing" textLength="147.356" x="257.1929" y="450.1221">get_analysis(session_id, type)</text><polygon fill="#000000" points="1375.0928,478.375,1385.0928,482.375,1375.0928,486.375,1379.0928,482.375" style="stroke:#000000;stroke-width:1;"/><line style="stroke:#000000;stroke-width:1.5;" x1="478.9761" x2="1381.0928" y1="482.375" y2="482.375"/><text fill="#000000" font-family="Inter" font-size="11" lengthAdjust="spacing" textLength="144.3052" x="485.9761" y="477.958">FIND cached_analysis_{type}</text><polygon fill="#000000" points="261.1929,506.2109,251.1929,510.2109,261.1929,514.2109,257.1929,510.2109" style="stroke:#000000;stroke-width:1;"/><line style="stroke:#000000;stroke-width:1.5;stroke-dasharray:2.0,2.0;" x1="255.1929" x2="472.9761" y1="510.2109" y2="510.2109"/><text fill="#000000" font-family="Inter" font-size="11" lengthAdjust="spacing" textLength="107.6152" x="267.1929" y="505.7939">cached result or None</text><path d="M19,525.2109 L72.8369,525.2109 L72.8369,531.0469 L62.8369,541.0469 L15,541.0469 L15,529.2109 A4,4 0 0 1 19,525.2109 " fill="#FFFFFF" style="stroke:#000000;stroke-width:1;"/><rect fill="none" height="1128.4531" rx="4" ry="4" style="stroke:#000000;stroke-width:1;" width="1409.55" x="15" y="525.2109"/><text fill="#000000" font-family="Inter" font-size="11" font-weight="bold" lengthAdjust="spacing" textLength="12.8369" x="30" y="537.6299">alt</text><text fill="#000000" font-family="Inter" font-size="11" font-weight="bold" lengthAdjust="spacing" textLength="61.1177" x="87.8369" y="538.6299">[Cache HIT]</text><polygon fill="#000000" points="53.0615,556.8828,43.0615,560.8828,53.0615,564.8828,49.0615,560.8828" style="stroke:#000000;stroke-width:1;"/><line style="stroke:#000000;stroke-width:1.5;stroke-dasharray:2.0,2.0;" x1="47.0615" x2="239.1929" y1="560.8828" y2="560.8828"/><text fill="#000000" font-family="Inter" font-size="11" font-weight="bold" lengthAdjust="spacing" textLength="18.353" x="59.0615" y="556.4658">200</text><text fill="#000000" font-family="Inter" font-size="11" lengthAdjust="spacing" textLength="136.3452" x="80.4707" y="556.4658">AnalysisResponse (cached)</text><line style="stroke:#000000;stroke-width:1;stroke-dasharray:2.0,2.0;" x1="15" x2="1424.55" y1="569.8828" y2="569.8828"/><text fill="#000000" font-family="Inter" font-size="11" font-weight="bold" lengthAdjust="spacing" textLength="248.5474" x="20" y="581.3018">[type="short" AND cached_analysis_full exists]</text><polygon fill="#000000" points="461.9761,600.5547,471.9761,604.5547,461.9761,608.5547,465.9761,604.5547" style="stroke:#000000;stroke-width:1;"/><line style="stroke:#000000;stroke-width:1.5;" x1="250.1929" x2="467.9761" y1="604.5547" y2="604.5547"/><text fill="#000000" font-family="Inter" font-size="11" lengthAdjust="spacing" textLength="148.4355" x="257.1929" y="600.1377">get_analysis(session_id, "full")</text><polygon fill="#000000" points="261.1929,628.3906,251.1929,632.3906,261.1929,636.3906,257.1929,632.3906" style="stroke:#000000;stroke-width:1;"/><line style="stroke:#000000;stroke-width:1.5;stroke-dasharray:2.0,2.0;" x1="255.1929" x2="472.9761" y1="632.3906" y2="632.3906"/><text fill="#000000" font-family="Inter" font-size="11" lengthAdjust="spacing" textLength="47.0776" x="267.1929" y="627.9736">full_result</text><line style="stroke:#000000;stroke-width:1.5;" x1="250.1929" x2="292.1929" y1="701.7344" y2="701.7344"/><line style="stroke:#000000;stroke-width:1.5;" x1="292.1929" x2="292.1929" y1="701.7344" y2="714.7344"/><line style="stroke:#000000;stroke-width:1.5;" x1="251.1929" x2="292.1929" y1="714.7344" y2="714.7344"/><polygon fill="#000000" points="261.1929,710.7344,251.1929,714.7344,261.1929,718.7344,257.1929,714.7344" style="stroke:#000000;stroke-width:1;"/><text fill="#000000" font-family="Inter" font-size="11" lengthAdjust="spacing" textLength="122.2729" x="257.1929" y="655.8096">_derive_short_from_full()</text><text fill="#000000" font-family="Inter" font-size="11" lengthAdjust="spacing" textLength="152.3994" x="257.1929" y="669.6455">&#8226; Trim summary to 2 sentences</text><text fill="#000000" font-family="Inter" font-size="11" lengthAdjust="spacing" textLength="148.1509" x="257.1929" y="683.4814">&#8226; Top 5 clauses by importance</text><text fill="#000000" font-family="Inter" font-size="11" lengthAdjust="spacing" textLength="116.9448" x="257.1929" y="697.3174">&#8226; Top 5 risks by severity</text><polygon fill="#000000" points="969.1328,738.5703,979.1328,742.5703,969.1328,746.5703,973.1328,742.5703" style="stroke:#000000;stroke-width:1;"/><line style="stroke:#000000;stroke-width:1.5;" x1="250.1929" x2="975.1328" y1="742.5703" y2="742.5703"/><text fill="#000000" font-family="Inter" font-size="11" lengthAdjust="spacing" textLength="218.8936" x="257.1929" y="738.1533">deanonymize_dict(short_result, pii_mapping)</text><polygon fill="#000000" points="261.1929,766.4063,251.1929,770.4063,261.1929,774.4063,257.1929,770.4063" style="stroke:#000000;stroke-width:1;"/><line style="stroke:#000000;stroke-width:1.5;stroke-dasharray:2.0,2.0;" x1="255.1929" x2="980.1328" y1="770.4063" y2="770.4063"/><text fill="#000000" font-family="Inter" font-size="11" lengthAdjust="spacing" textLength="105.166" x="267.1929" y="765.9893">de-anonymized result</text><polygon fill="#000000" points="461.9761,794.2422,471.9761,798.2422,461.9761,802.2422,465.9761,798.2422" style="stroke:#000000;stroke-width:1;"/><line style="stroke:#000000;stroke-width:1.5;" x1="250.1929" x2="467.9761" y1="798.2422" y2="798.2422"/><text fill="#000000" font-family="Inter" font-size="11" lengthAdjust="spacing" textLength="199.7832" x="257.1929" y="793.8252">save_analysis(session_id, "short", result)</text><polygon fill="#000000" points="1375.0928,822.0781,1385.0928,826.0781,1375.0928,830.0781,1379.0928,826.0781" style="stroke:#000000;stroke-width:1;"/><line style="stroke:#000000;stroke-width:1.5;" x1="473.9761" x2="1381.0928" y1="826.0781" y2="826.0781"/><text fill="#000000" font-family="Inter" font-size="11" lengthAdjust="spacing" textLength="159.5752" x="480.9761" y="821.6611">UPDATE cached_analysis_short</text><polygon fill="#000000" points="53.0615,863.75,43.0615,867.75,53.0615,871.75,49.0615,867.75" style="stroke:#000000;stroke-width:1;"/><line style="stroke:#000000;stroke-width:1.5;stroke-dasharray:2.0,2.0;" x1="47.0615" x2="239.1929" y1="867.75" y2="867.75"/><text fill="#000000" font-family="Inter" font-size="11" font-weight="bold" lengthAdjust="spacing" textLength="18.353" x="59.0615" y="849.4971">200</text><text fill="#000000" font-family="Inter" font-size="11" lengthAdjust="spacing" textLength="90.4922" x="80.4707" y="849.4971">AnalysisResponse</text><text fill="#000000" font-family="Inter" font-size="11" lengthAdjust="spacing" textLength="108.2222" x="59.0615" y="863.333">&#171;saved 1 Gemini call&#187;</text><line style="stroke:#000000;stroke-width:1;stroke-dasharray:2.0,2.0;" x1="15" x2="1424.55" y1="876.75" y2="876.75"/><text fill="#000000" font-family="Inter" font-size="11" font-weight="bold" lengthAdjust="spacing" textLength="202.689" x="20" y="888.1689">[Cache MISS &#8212; fresh analysis needed]</text><path d="M185.2048,898.5859 L239.0417,898.5859 L239.0417,904.4219 L229.0417,914.4219 L181.2048,914.4219 L181.2048,902.5859 A4,4 0 0 1 185.2048,898.5859 " fill="#FFFFFF" style="stroke:#000000;stroke-width:1;"/><rect fill="none" height="182.8516" rx="4" ry="4" style="stroke:#000000;stroke-width:1;" width="570.6995" x="181.2048" y="898.5859"/><text fill="#000000" font-family="Inter" font-size="11" font-weight="bold" lengthAdjust="spacing" textLength="12.8369" x="196.2048" y="911.0049">alt</text><text fill="#000000" font-family="Inter" font-size="11" font-weight="bold" lengthAdjust="spacing" textLength="111.2568" x="254.0417" y="912.0049">[HTOC tree available]</text><polygon fill="#000000" points="585.9575,930.2578,595.9575,934.2578,585.9575,938.2578,589.9575,934.2578" style="stroke:#000000;stroke-width:1;"/><line style="stroke:#000000;stroke-width:1.5;" x1="250.1929" x2="591.9575" y1="934.2578" y2="934.2578"/><text fill="#000000" font-family="Inter" font-size="11" lengthAdjust="spacing" textLength="222.5566" x="257.1929" y="929.8408">search_for_analysis(tree, page_texts, gemini)</text><line style="stroke:#000000;stroke-width:1.5;" x1="607.9575" x2="649.9575" y1="975.9297" y2="975.9297"/><line style="stroke:#000000;stroke-width:1.5;" x1="649.9575" x2="649.9575" y1="975.9297" y2="988.9297"/><line style="stroke:#000000;stroke-width:1.5;" x1="608.9575" x2="649.9575" y1="988.9297" y2="988.9297"/><polygon fill="#000000" points="618.9575,984.9297,608.9575,988.9297,618.9575,992.9297,614.9575,988.9297" style="stroke:#000000;stroke-width:1;"/><text fill="#000000" font-family="Inter" font-size="11" lengthAdjust="spacing" textLength="114.9468" x="614.9575" y="957.6768">Build structured context</text><text fill="#000000" font-family="Inter" font-size="11" lengthAdjust="spacing" textLength="113.6899" x="614.9575" y="971.5127">from all HTOC sections</text><polygon fill="#000000" points="261.1929,1012.7656,251.1929,1016.7656,261.1929,1020.7656,257.1929,1016.7656" style="stroke:#000000;stroke-width:1;"/><line style="stroke:#000000;stroke-width:1.5;stroke-dasharray:2.0,2.0;" x1="255.1929" x2="601.9575" y1="1016.7656" y2="1016.7656"/><text fill="#000000" font-family="Inter" font-size="11" lengthAdjust="spacing" textLength="201.7705" x="267.1929" y="1012.3486">structured_context (organized by section)</text><line style="stroke:#000000;stroke-width:1;stroke-dasharray:2.0,2.0;" x1="181.2048" x2="751.9043" y1="1025.7656" y2="1025.7656"/><text fill="#000000" font-family="Inter" font-size="11" font-weight="bold" lengthAdjust="spacing" textLength="56.2085" x="186.2048" y="1037.1846">[No HTOC]</text><line style="stroke:#000000;stroke-width:1.5;" x1="250.1929" x2="292.1929" y1="1060.4375" y2="1060.4375"/><line style="stroke:#000000;stroke-width:1.5;" x1="292.1929" x2="292.1929" y1="1060.4375" y2="1073.4375"/><line style="stroke:#000000;stroke-width:1.5;" x1="251.1929" x2="292.1929" y1="1073.4375" y2="1073.4375"/><polygon fill="#000000" points="261.1929,1069.4375,251.1929,1073.4375,261.1929,1077.4375,257.1929,1073.4375" style="stroke:#000000;stroke-width:1;"/><text fill="#000000" font-family="Inter" font-size="11" lengthAdjust="spacing" textLength="176.0913" x="257.1929" y="1056.0205">Use full anonymized_text as context</text><polygon fill="#000000" points="734.9043,1104.2734,744.9043,1108.2734,734.9043,1112.2734,738.9043,1108.2734" style="stroke:#000000;stroke-width:1;"/><line style="stroke:#000000;stroke-width:1.5;" x1="250.1929" x2="740.9043" y1="1108.2734" y2="1108.2734"/><text fill="#000000" font-family="Inter" font-size="11" lengthAdjust="spacing" textLength="207.8936" x="257.1929" y="1103.8564">analyze_document(context, analysis_type)</text><line style="stroke:#000000;stroke-width:1.5;" x1="756.9043" x2="798.9043" y1="1177.6172" y2="1177.6172"/><line style="stroke:#000000;stroke-width:1.5;" x1="798.9043" x2="798.9043" y1="1177.6172" y2="1190.6172"/><line style="stroke:#000000;stroke-width:1.5;" x1="757.9043" x2="798.9043" y1="1190.6172" y2="1190.6172"/><polygon fill="#000000" points="767.9043,1186.6172,757.9043,1190.6172,767.9043,1194.6172,763.9043,1190.6172" style="stroke:#000000;stroke-width:1;"/><text fill="#000000" font-family="Inter" font-size="11" lengthAdjust="spacing" textLength="64.8076" x="763.9043" y="1131.6924">Build prompt:</text><text fill="#000000" font-family="Inter" font-size="11" lengthAdjust="spacing" textLength="127.9663" x="763.9043" y="1145.5283">&#8226; JSON schema for output</text><text fill="#000000" font-family="Inter" font-size="11" lengthAdjust="spacing" textLength="107.1641" x="763.9043" y="1159.3643">&#8226; Risk scoring formula</text><text fill="#000000" font-family="Inter" font-size="11" lengthAdjust="spacing" textLength="108.3994" x="763.9043" y="1173.2002">&#8226; full vs short template</text><line style="stroke:#000000;stroke-width:1.5;" x1="756.9043" x2="798.9043" y1="1232.2891" y2="1232.2891"/><line style="stroke:#000000;stroke-width:1.5;" x1="798.9043" x2="798.9043" y1="1232.2891" y2="1245.2891"/><line style="stroke:#000000;stroke-width:1.5;" x1="757.9043" x2="798.9043" y1="1245.2891" y2="1245.2891"/><polygon fill="#000000" points="767.9043,1241.2891,757.9043,1245.2891,767.9043,1249.2891,763.9043,1245.2891" style="stroke:#000000;stroke-width:1;"/><text fill="#000000" font-family="Inter" font-size="11" lengthAdjust="spacing" textLength="195.2285" x="763.9043" y="1214.0361">response_mime_type="application/json"</text><text fill="#000000" font-family="Inter" font-size="11" lengthAdjust="spacing" textLength="133.0205" x="763.9043" y="1227.8721">max_output_tokens=65536</text><polygon fill="#000000" points="261.1929,1269.125,251.1929,1273.125,261.1929,1277.125,257.1929,1273.125" style="stroke:#000000;stroke-width:1;"/><line style="stroke:#000000;stroke-width:1.5;stroke-dasharray:2.0,2.0;" x1="255.1929" x2="745.9043" y1="1273.125" y2="1273.125"/><text fill="#000000" font-family="Inter" font-size="11" lengthAdjust="spacing" textLength="98.4253" x="267.1929" y="1268.708">raw JSON response</text><line style="stroke:#000000;stroke-width:1.5;" x1="756.9043" x2="798.9043" y1="1328.6328" y2="1328.6328"/><line style="stroke:#000000;stroke-width:1.5;" x1="798.9043" x2="798.9043" y1="1328.6328" y2="1341.6328"/><line style="stroke:#000000;stroke-width:1.5;" x1="757.9043" x2="798.9043" y1="1341.6328" y2="1341.6328"/><polygon fill="#000000" points="767.9043,1337.6328,757.9043,1341.6328,767.9043,1345.6328,763.9043,1341.6328" style="stroke:#000000;stroke-width:1;"/><text fill="#000000" font-family="Inter" font-size="11" lengthAdjust="spacing" textLength="117.4067" x="763.9043" y="1296.5439">_clean_json_response()</text><text fill="#000000" font-family="Inter" font-size="11" lengthAdjust="spacing" textLength="119.8452" x="763.9043" y="1310.3799">_repair_truncated_json()</text><text fill="#000000" font-family="Inter" font-size="11" lengthAdjust="spacing" textLength="128.396" x="763.9043" y="1324.2158">_extract_json_bruteforce()</text><polygon fill="#000000" points="261.1929,1365.4688,251.1929,1369.4688,261.1929,1373.4688,257.1929,1369.4688" style="stroke:#000000;stroke-width:1;"/><line style="stroke:#000000;stroke-width:1.5;stroke-dasharray:2.0,2.0;" x1="255.1929" x2="750.9043" y1="1369.4688" y2="1369.4688"/><text fill="#000000" font-family="Inter" font-size="11" lengthAdjust="spacing" textLength="55.6338" x="267.1929" y="1365.0518">parsed Dict</text><line style="stroke:#000000;stroke-width:1.5;" x1="250.1929" x2="292.1929" y1="1438.8125" y2="1438.8125"/><line style="stroke:#000000;stroke-width:1.5;" x1="292.1929" x2="292.1929" y1="1438.8125" y2="1451.8125"/><line style="stroke:#000000;stroke-width:1.5;" x1="251.1929" x2="292.1929" y1="1451.8125" y2="1451.8125"/><polygon fill="#000000" points="261.1929,1447.8125,251.1929,1451.8125,261.1929,1455.8125,257.1929,1451.8125" style="stroke:#000000;stroke-width:1;"/><text fill="#000000" font-family="Inter" font-size="11" lengthAdjust="spacing" textLength="94.1445" x="257.1929" y="1392.8877">_normalize_result()</text><text fill="#000000" font-family="Inter" font-size="11" lengthAdjust="spacing" textLength="159.1509" x="257.1929" y="1406.7236">&#8226; Ensure List[Dict] for obligations</text><text fill="#000000" font-family="Inter" font-size="11" lengthAdjust="spacing" textLength="180.5332" x="257.1929" y="1420.5596">&#8226; Ensure List[str] for missing_clauses</text><text fill="#000000" font-family="Inter" font-size="11" lengthAdjust="spacing" textLength="156.7178" x="257.1929" y="1434.3955">&#8226; Ensure {role, name} for parties</text><polygon fill="#000000" points="964.1328,1475.6484,974.1328,1479.6484,964.1328,1483.6484,968.1328,1479.6484" style="stroke:#000000;stroke-width:1;"/><line style="stroke:#000000;stroke-width:1.5;" x1="250.1929" x2="970.1328" y1="1479.6484" y2="1479.6484"/><text fill="#000000" font-family="Inter" font-size="11" lengthAdjust="spacing" textLength="188.3213" x="257.1929" y="1475.2314">deanonymize_dict(result, pii_mapping)</text><line style="stroke:#000000;stroke-width:1.5;" x1="986.1328" x2="1028.1328" y1="1521.3203" y2="1521.3203"/><line style="stroke:#000000;stroke-width:1.5;" x1="1028.1328" x2="1028.1328" y1="1521.3203" y2="1534.3203"/><line style="stroke:#000000;stroke-width:1.5;" x1="987.1328" x2="1028.1328" y1="1534.3203" y2="1534.3203"/><polygon fill="#000000" points="997.1328,1530.3203,987.1328,1534.3203,997.1328,1538.3203,993.1328,1534.3203" style="stroke:#000000;stroke-width:1;"/><text fill="#000000" font-family="Inter" font-size="11" lengthAdjust="spacing" textLength="178.7178" x="993.1328" y="1503.0674">Replace [PERSON_1] &#8594; "John Doe"</text><text fill="#000000" font-family="Inter" font-size="11" lengthAdjust="spacing" textLength="159.7471" x="993.1328" y="1516.9033">Replace [ORG_1] &#8594; "ABC Corp"</text><polygon fill="#000000" points="261.1929,1558.1563,251.1929,1562.1563,261.1929,1566.1563,257.1929,1562.1563" style="stroke:#000000;stroke-width:1;"/><line style="stroke:#000000;stroke-width:1.5;stroke-dasharray:2.0,2.0;" x1="255.1929" x2="980.1328" y1="1562.1563" y2="1562.1563"/><text fill="#000000" font-family="Inter" font-size="11" lengthAdjust="spacing" textLength="105.166" x="267.1929" y="1557.7393">de-anonymized result</text><polygon fill="#000000" points="456.9761,1585.9922,466.9761,1589.9922,456.9761,1593.9922,460.9761,1589.9922" style="stroke:#000000;stroke-width:1;"/><line style="stroke:#000000;stroke-width:1.5;" x1="250.1929" x2="462.9761" y1="1589.9922" y2="1589.9922"/><text fill="#000000" font-family="Inter" font-size="11" lengthAdjust="spacing" textLength="188.3105" x="257.1929" y="1585.5752">save_analysis(session_id, type, result)</text><polygon fill="#000000" points="1375.0928,1613.8281,1385.0928,1617.8281,1375.0928,1621.8281,1379.0928,1617.8281" style="stroke:#000000;stroke-width:1;"/><line style="stroke:#000000;stroke-width:1.5;" x1="473.9761" x2="1381.0928" y1="1617.8281" y2="1617.8281"/><text fill="#000000" font-family="Inter" font-size="11" lengthAdjust="spacing" textLength="163.2598" x="480.9761" y="1613.4111">UPDATE cached_analysis_{type}</text><polygon fill="#000000" points="53.0615,1641.6641,43.0615,1645.6641,53.0615,1649.6641,49.0615,1645.6641" style="stroke:#000000;stroke-width:1;"/><line style="stroke:#000000;stroke-width:1.5;stroke-dasharray:2.0,2.0;" x1="47.0615" x2="239.1929" y1="1645.6641" y2="1645.6641"/><text fill="#000000" font-family="Inter" font-size="11" font-weight="bold" lengthAdjust="spacing" textLength="18.353" x="59.0615" y="1641.2471">200</text><text fill="#000000" font-family="Inter" font-size="11" lengthAdjust="spacing" textLength="90.4922" x="80.4707" y="1641.2471">AnalysisResponse</text><rect fill="#FFFFFF" height="3" rx="4" ry="4" style="stroke:#FFFFFF;stroke-width:1;" width="1429.55" x="5" y="1680.582"/><line style="stroke:#000000;stroke-width:0.5;" x1="5" x2="1434.55" y1="1680.582" y2="1680.582"/><line style="stroke:#000000;stroke-width:0.5;" x1="5" x2="1434.55" y1="1683.582" y2="1683.582"/><rect fill="#FFFFFF" height="21.8359" rx="4" ry="4" style="stroke:#000000;stroke-width:1;" width="242.5938" x="598.4781" y="1670.6641"/><text fill="#000000" font-family="Inter" font-size="11" font-weight="bold" lengthAdjust="spacing" textLength="225.5376" x="604.4781" y="1686.083">GET /api/v1/analyze/report (PDF Download)</text><polygon fill="#000000" points="228.1929,1718.3359,238.1929,1722.3359,228.1929,1726.3359,232.1929,1722.3359" style="stroke:#000000;stroke-width:1;"/><line style="stroke:#000000;stroke-width:1.5;" x1="42.0615" x2="234.1929" y1="1722.3359" y2="1722.3359"/><text fill="#000000" font-family="Inter" font-size="11" lengthAdjust="spacing" textLength="179.1313" x="49.0615" y="1717.9189">GET + X-Session-ID + analysis_type</text><line style="stroke:#000000;stroke-width:1.5;" x1="250.1929" x2="292.1929" y1="1764.0078" y2="1764.0078"/><line style="stroke:#000000;stroke-width:1.5;" x1="292.1929" x2="292.1929" y1="1764.0078" y2="1777.0078"/><line style="stroke:#000000;stroke-width:1.5;" x1="251.1929" x2="292.1929" y1="1777.0078" y2="1777.0078"/><polygon fill="#000000" points="261.1929,1773.0078,251.1929,1777.0078,261.1929,1781.0078,257.1929,1777.0078" style="stroke:#000000;stroke-width:1;"/><text fill="#000000" font-family="Inter" font-size="11" lengthAdjust="spacing" textLength="118.6206" x="257.1929" y="1745.7549">Run analysis flow above</text><text fill="#000000" font-family="Inter" font-size="11" lengthAdjust="spacing" textLength="118.0029" x="257.1929" y="1759.5908">(uses cache if available)</text><polygon fill="#000000" points="1176.8506,1814.6797,1186.8506,1818.6797,1176.8506,1822.6797,1180.8506,1818.6797" style="stroke:#000000;stroke-width:1;"/><line style="stroke:#000000;stroke-width:1.5;" x1="250.1929" x2="1182.8506" y1="1818.6797" y2="1818.6797"/><text fill="#000000" font-family="Inter" font-size="11" lengthAdjust="spacing" textLength="129.6206" x="257.1929" y="1800.4268">create_pdf_from_analysis(</text><text fill="#000000" font-family="Inter" font-size="11" lengthAdjust="spacing" textLength="99.666" x="257.1929" y="1814.2627">data, filename, type)</text><line style="stroke:#000000;stroke-width:1.5;" x1="1198.8506" x2="1240.8506" y1="1874.1875" y2="1874.1875"/><line style="stroke:#000000;stroke-width:1.5;" x1="1240.8506" x2="1240.8506" y1="1874.1875" y2="1887.1875"/><line style="stroke:#000000;stroke-width:1.5;" x1="1199.8506" x2="1240.8506" y1="1887.1875" y2="1887.1875"/><polygon fill="#000000" points="1209.8506,1883.1875,1199.8506,1887.1875,1209.8506,1891.1875,1205.8506,1887.1875" style="stroke:#000000;stroke-width:1;"/><text fill="#000000" font-family="Inter" font-size="11" lengthAdjust="spacing" textLength="78.8745" x="1205.8506" y="1842.0986">Select template:</text><text fill="#000000" font-family="Inter" font-size="11" lengthAdjust="spacing" textLength="103.2163" x="1205.8506" y="1855.9346">&#8226; full &#8594; template.html</text><text fill="#000000" font-family="Inter" font-size="11" lengthAdjust="spacing" textLength="144.1816" x="1205.8506" y="1869.7705">&#8226; short &#8594; template_short.html</text><line style="stroke:#000000;stroke-width:1.5;" x1="1198.8506" x2="1240.8506" y1="1956.5313" y2="1956.5313"/><line style="stroke:#000000;stroke-width:1.5;" x1="1240.8506" x2="1240.8506" y1="1956.5313" y2="1969.5313"/><line style="stroke:#000000;stroke-width:1.5;" x1="1199.8506" x2="1240.8506" y1="1969.5313" y2="1969.5313"/><polygon fill="#000000" points="1209.8506,1965.5313,1199.8506,1969.5313,1209.8506,1973.5313,1205.8506,1969.5313" style="stroke:#000000;stroke-width:1;"/><text fill="#000000" font-family="Inter" font-size="11" lengthAdjust="spacing" textLength="89.2676" x="1205.8506" y="1910.6064">Jinja2 render with:</text><text fill="#000000" font-family="Inter" font-size="11" lengthAdjust="spacing" textLength="78.4287" x="1205.8506" y="1924.4424">&#8226; IST timestamp</text><text fill="#000000" font-family="Inter" font-size="11" lengthAdjust="spacing" textLength="106.5625" x="1205.8506" y="1938.2783">&#8226; Color-coded risk bar</text><text fill="#000000" font-family="Inter" font-size="11" lengthAdjust="spacing" textLength="107.1587" x="1205.8506" y="1952.1143">&#8226; Severity-sorted risks</text><line style="stroke:#000000;stroke-width:1.5;" x1="1198.8506" x2="1240.8506" y1="1997.3672" y2="1997.3672"/><line style="stroke:#000000;stroke-width:1.5;" x1="1240.8506" x2="1240.8506" y1="1997.3672" y2="2010.3672"/><line style="stroke:#000000;stroke-width:1.5;" x1="1199.8506" x2="1240.8506" y1="2010.3672" y2="2010.3672"/><polygon fill="#000000" points="1209.8506,2006.3672,1199.8506,2010.3672,1209.8506,2014.3672,1205.8506,2010.3672" style="stroke:#000000;stroke-width:1;"/><text fill="#000000" font-family="Inter" font-size="11" lengthAdjust="spacing" textLength="159.2422" x="1205.8506" y="1992.9502">WeasyPrint: HTML &#8594; PDF bytes</text><polygon fill="#000000" points="261.1929,2034.2031,251.1929,2038.2031,261.1929,2042.2031,257.1929,2038.2031" style="stroke:#000000;stroke-width:1;"/><line style="stroke:#000000;stroke-width:1.5;stroke-dasharray:2.0,2.0;" x1="255.1929" x2="1192.8506" y1="2038.2031" y2="2038.2031"/><text fill="#000000" font-family="Inter" font-size="11" lengthAdjust="spacing" textLength="51.3477" x="267.1929" y="2033.7861">PDF bytes</text><polygon fill="#000000" points="53.0615,2075.875,43.0615,2079.875,53.0615,2083.875,49.0615,2079.875" style="stroke:#000000;stroke-width:1;"/><line style="stroke:#000000;stroke-width:1.5;stroke-dasharray:2.0,2.0;" x1="47.0615" x2="244.1929" y1="2079.875" y2="2079.875"/><text fill="#000000" font-family="Inter" font-size="11" font-weight="bold" lengthAdjust="spacing" textLength="18.353" x="59.0615" y="2061.6221">200</text><text fill="#000000" font-family="Inter" font-size="11" lengthAdjust="spacing" textLength="70.9414" x="80.4707" y="2061.6221">application/pdf</text><text fill="#000000" font-family="Inter" font-size="11" lengthAdjust="spacing" textLength="156.5244" x="59.0615" y="2075.458">Content-Disposition: attachment</text><!--SRC=[dLTTRXit47xVKqmtG24xLlmJEtK4k81aIOwCn3Oi1oqG1mjgbv8Oxv9RafAZf07or0CKFK5VUuIyvIWvIOS_krh9aXlNWO6OdFdcbz_C_g37DAEGfuJnGDqmdXD9CXYG-6OanOGdno8L4XvrE-PVHIAXGp99TLTmVKOGeSSrbQll- -m3XTtTogKQaqJSCZw28KaLhTnucv9J2OTL3VhRXFAODgKKjrTZ5jzmgXJiFZbO8NH1f6OnomdNBI4JAdqGp_P_sZzi_OV2dSWFkytkyGgbbso8lvmkc7Y-ttpQEWm2pNHAONEpoKawKqn1DnMtcvlmxVDVq9saAVm8_R6G6ag1nt3Hxi8bpV4q24Yi4IuyJXdbEWIYmFqN7dLskdjOYNpkCeG5oAMOO1Mk-TT_jeav-a2_Vh7AxW8UjLkTvh9o7nF91EzJEMKnjUB-28qTTWywpnVbhoIbVKfaFAwgcDFLyYSqOvnL8d47fgSwUvszHU6BNg_91Pzbs3FIIkF9QboNgXEAhK8mMIvEUrRA9qIJ0L4KmbU2ZqIxPONQhT9sS7G45-VzAzWcETkUxXPfWnhnAOtqBAT7GopPxyeKR0EEZeB05wF-Sv7PXeDv3B_MVVBglJQCAKbCFHx30XnW0yaPs7OobMPJegb72WAFYDX56Hemehgct5yHIpRcIbuaA4HH2yDhGBTtrWQl4U19VG7ENq0Yuac6WSpLgn4Ls0czOouWgOQn5d6aDD4J1KSGvbB4vfgFmW3mfuW38Nsw6lWWzdRsy1c4RMyPb6Ru6ggw51a1kC2K-Jv88atVwtimztTs3EQP02C8P4fOIWOfHIoUh4reLDIaajajCFNvtlp691wZTsLjFnhbJwkJwMH1KeMi2FYspmIdQrDxRAJXHU_gtaoQgCkdJrKkE6QkvYnj12wHjdr3sxeXD5SuRLeRw7kcj5emzbtP2ersk64LLuPjxYCNTB04Nyf4-4ROb4RMoMWeHMQTgcrSys-V_qPcOKYwaomZ-6QqW3riNnmsoC3A2uWS3Y1EoGHTWy4CM6POWA14LK0oTMEl5PsYGJrRTiWmJGC7LzbuKS9YV7VMBHV35kICHHd9SsnL5xRHMWWveVLvwyBgs2jFaM3agtFhYhRb8PQIxFlmzKMxUTMvKrIh6ZouUSpaC0ubi5kmT4pIzEiNtqokBL_r-dqxo8ResRYaDk2K9ZHnLaqJlxWwFmPjvaBv8ktTOYhiu32KP2PAD1HodWsZYnad8sePG6rX8ngdDagOylKObFBKGiwXMnEM9aWqSXBhYSJWObnA4E-Qcrv3LrFdggA8XcbOmgdMTWuIUH2e2JaYtDRQzfR5c7jOUU6bZpQNo5R6wegCbDPUevXzdajKQ8QOD-_mUBBSOBvw3V03BIgelkOLjnP7adEuTDMfspEFLCLq2KNEpdBTS4_ij7z-1Wgx8oE0DGHq99zeTtU93m_lXBGBdv3P92NknWOtLM3R5SaxmprKqtLcfU_IA6CPTNCvn9UOifYOd6-_KuA7rpmZxoDdFjBYXd9rzEpWuEcp1THgbYMvTUuN-EliHt6At10PCr4XQqWA_yW9an7s1aTNi4X6nDvWeYKcrUaC95h4-6FKMkiDBWKAMwcDp1CizOylobeQvPXQaXhUSenH46Y7A-nOU8aK_yRWldKL6gHiP1EdxefXdpkfZDcf77bsNP3yA4MAxvFZ-l_92jlrZAhlvDMrZ5e6Z8fpYYrmSCLBIKpXpKNd4giMxRw5Rt_y2U6f67De2ueTK8gSNvwKzytMCU27HHu-WBMN2c3y-Hz4RZfraSNl3Fq7KBjVCfPSAxU7XrA-Mv4gICKQYflnIUVEOhmjtOPTCnyhRN7BKq6IjJkn0LXQYPTMuVlMtnBcSiBdKsQ87r901cAAqwfc9xxD4B3XVCniBC0uZt45anGDHNaoT4j6MQnhRZuKjc38Kcgw-SuMwB_AF58LiqzJPFoIkXeLNZDTLvm_6UiiTNUEwwgNRbfRaLKcJXb_H_QmVpZkIN3BzDXRwU47XqOgn1KyozsH_Ggjno8nFMneTq2ak-dxfQUk4DNVgbNcVg54pIwGgtK31zIhbzPLK-t1JDEvniAdJtbRxIF_9NjVCrRP6yjopO_DSEAwtcROdOgP2nnXMcE5xNVAYaRz5m00]--></g></svg>