<svg xmlns="http://www.w3.org/2000/svg" xmlns:xlink="http://www.w3.org/1999/xlink" contentStyleType="text/css" height="653px" preserveAspectRatio="none" style="width:1537px;height:653px;background:#FEFEFE;" version="1.1" viewBox="0 0 1537 653" width="1537px" zoomAndPan="magnify"><title>**Legal Assist** &#8212; Backend Architecture</title><defs/><g><rect fill="#FEFEFE" height="653" style="stroke:none;stroke-width:1;" width="1537" x="0" y="0"/><text fill="#000000" font-family="Inter" font-size="22" font-weight="bold" lengthAdjust="spacing" textLength="129.6045" x="568.0356" y="37.8379">Legal Assist</text><text fill="#000000" font-family="Inter" font-size="22" font-weight="bold" lengthAdjust="spacing" textLength="256.2119" x="703.7524" y="37.8379">&#8212; Backend Architecture</text><text fill="#000000" font-family="Inter" font-size="22" font-weight="bold" lengthAdjust="spacing" textLength="6.1123" x="760.9438" y="65.5098">&#160;</text><!--cluster API--><g id="cluster_API"><rect fill="#DBEAFE" height="102" rx="5" ry="5" style="stroke:#000000;stroke-width:1;" width="828" x="353" y="243.3438"/><text fill="#000000" font-family="Inter" font-size="12" font-weight="bold" lengthAdjust="spacing" textLength="55.3594" x="711.3184" y="257.8008">API Layer</text><text fill="#000000" font-family="Inter" font-size="12" font-weight="bold" lengthAdjust="spacing" textLength="52.6699" x="770.0117" y="257.8008">(FastAPI)</text></g><!--cluster SVC--><g id="cluster_SVC"><rect fill="#E8F5E9" height="101" rx="5" ry="5" style="stroke:#000000;stroke-width:1;" width="1519" x="12" y="402.3438"/><text fill="#000000" font-family="Inter" font-size="12" font-weight="bold" lengthAdjust="spacing" textLength="49.377" x="746.8115" y="416.8008">Services</text></g><!--entity Auth--><g id="elem_Auth"><rect fill="#FFFFFF" height="36.1875" rx="5" ry="5" style="stroke:#000000;stroke-width:1;" width="126.043" x="421" y="285.3438"/><text fill="#000000" font-family="Inter" font-size="12" lengthAdjust="spacing" textLength="106.043" x="431" y="300.8008">POST /auth/register</text><text fill="#000000" font-family="Inter" font-size="12" lengthAdjust="spacing" textLength="91.3828" x="431" y="315.8945">POST /auth/login</text></g><!--entity Docs--><g id="elem_Docs"><rect fill="#FFFFFF" height="36.1875" rx="5" ry="5" style="stroke:#000000;stroke-width:1;" width="175.3965" x="607.5" y="285.3438"/><text fill="#000000" font-family="Inter" font-size="12" lengthAdjust="spacing" textLength="137.4082" x="617.5" y="300.8008">POST /documents/upload</text><text fill="#000000" font-family="Inter" font-size="12" lengthAdjust="spacing" textLength="155.3965" x="617.5" y="315.8945">GET  /documents/htoc-status</text></g><!--entity Analysis--><g id="elem_Analysis"><rect fill="#FFFFFF" height="36.1875" rx="5" ry="5" style="stroke:#000000;stroke-width:1;" width="130.7129" x="1025.5" y="285.3438"/><text fill="#000000" font-family="Inter" font-size="12" lengthAdjust="spacing" textLength="80.7012" x="1035.5" y="300.8008">POST /analyze</text><text fill="#000000" font-family="Inter" font-size="12" lengthAdjust="spacing" textLength="110.7129" x="1035.5" y="315.8945">GET  /analyze/report</text></g><!--entity Chat--><g id="elem_Chat"><rect fill="#FFFFFF" height="36.1875" rx="5" ry="5" style="stroke:#000000;stroke-width:1;" width="122.0293" x="843" y="285.3438"/><text fill="#000000" font-family="Inter" font-size="12" lengthAdjust="spacing" textLength="102.0293" x="853" y="300.8008">POST /chat/stream</text><text fill="#000000" font-family="Inter" font-size="12" lengthAdjust="spacing" textLength="62.0215" x="853" y="315.8945">POST /chat</text></g><!--entity AuthSvc--><g id="elem_AuthSvc"><rect fill="#FFFFFF" height="36.1875" rx="5" ry="5" style="stroke:#000000;stroke-width:1;" width="91.0098" x="28.5" y="443.8438"/><text fill="#000000" font-family="Inter" font-size="12" font-weight="bold" lengthAdjust="spacing" textLength="70.0254" x="38.5" y="459.3008">AuthService</text><text fill="#000000" font-family="Inter" font-size="12" lengthAdjust="spacing" textLength="71.0098" x="38.5" y="474.3945">JWT + bcrypt</text></g><!--entity Parser--><g id="elem_Parser"><rect fill="#FFFFFF" height="51.2813" rx="5" ry="5" style="stroke:#000000;stroke-width:1;" width="124.0273" x="516" y="436.3438"/><text fill="#000000" font-family="Inter" font-size="12" font-weight="bold" lengthAdjust="spacing" textLength="96.0352" x="526" y="451.8008">DocumentParser</text><text fill="#000000" font-family="Inter" font-size="12" lengthAdjust="spacing" textLength="100.0078" x="526" y="466.8945">PyMuPDF &#183; DOCX</text><text fill="#000000" font-family="Inter" font-size="12" lengthAdjust="spacing" textLength="104.0273" x="526" y="481.9883">Gemini Vision OCR</text></g><!--entity PII--><g id="elem_PII"><rect fill="#FFFFFF" height="51.2813" rx="5" ry="5" style="stroke:#000000;stroke-width:1;" width="134.7383" x="869.5" y="436.3438"/><text fill="#000000" font-family="Inter" font-size="12" font-weight="bold" lengthAdjust="spacing" textLength="83.3496" x="879.5" y="451.8008">PIIAnonymizer</text><text fill="#000000" font-family="Inter" font-size="12" lengthAdjust="spacing" textLength="79.3594" x="879.5" y="466.8945">Presidio (local)</text><text fill="#000000" font-family="Inter" font-size="12" lengthAdjust="spacing" textLength="114.7383" x="879.5" y="481.9883">12 Indian recognizers</text></g><!--entity Session--><g id="elem_Session"><rect fill="#FFFFFF" height="51.2813" rx="5" ry="5" style="stroke:#000000;stroke-width:1;" width="108.7227" x="700.5" y="436.3438"/><text fill="#000000" font-family="Inter" font-size="12" font-weight="bold" lengthAdjust="spacing" textLength="88.7227" x="710.5" y="451.8008">SessionService</text><text fill="#000000" font-family="Inter" font-size="12" lengthAdjust="spacing" textLength="86.6895" x="710.5" y="466.8945">CRUD &#183; caching</text><text fill="#000000" font-family="Inter" font-size="12" lengthAdjust="spacing" textLength="41.3496" x="710.5" y="481.9883">TTL: 2h</text></g><!--entity HTOC--><g id="elem_HTOC"><rect fill="#FFFFFF" height="51.2813" rx="5" ry="5" style="stroke:#000000;stroke-width:1;" width="118.0566" x="180" y="436.3438"/><text fill="#000000" font-family="Inter" font-size="12" font-weight="bold" lengthAdjust="spacing" textLength="75.334" x="190" y="451.8008">HTOCBuilder</text><text fill="#000000" font-family="Inter" font-size="12" lengthAdjust="spacing" textLength="92.0156" x="190" y="466.8945">Hierarchical TOC</text><text fill="#000000" font-family="Inter" font-size="12" lengthAdjust="spacing" textLength="98.0566" x="190" y="481.9883">via LLM reasoning</text></g><!--entity BM25--><g id="elem_BM25"><rect fill="#FFFFFF" height="51.2813" rx="5" ry="5" style="stroke:#000000;stroke-width:1;" width="97.0273" x="358.5" y="436.3438"/><text fill="#000000" font-family="Inter" font-size="12" font-weight="bold" lengthAdjust="spacing" textLength="72.0352" x="368.5" y="451.8008">BM25Search</text><text fill="#000000" font-family="Inter" font-size="12" lengthAdjust="spacing" textLength="62.6953" x="368.5" y="466.8945">BM25Okapi</text><text fill="#000000" font-family="Inter" font-size="12" lengthAdjust="spacing" textLength="77.0273" x="368.5" y="481.9883">+ HTOC boost</text></g><!--entity Tree--><g id="elem_Tree"><rect fill="#FFFFFF" height="51.2813" rx="5" ry="5" style="stroke:#000000;stroke-width:1;" width="98.0469" x="1065" y="436.3438"/><text fill="#000000" font-family="Inter" font-size="12" font-weight="bold" lengthAdjust="spacing" textLength="65.373" x="1075" y="451.8008">TreeSearch</text><text fill="#000000" font-family="Inter" font-size="12" lengthAdjust="spacing" textLength="78.0469" x="1075" y="466.8945">LLM navigates</text><text fill="#000000" font-family="Inter" font-size="12" lengthAdjust="spacing" textLength="58.0078" x="1075" y="481.9883">HTOC tree</text></g><!--entity Gemini--><g id="elem_Gemini"><rect fill="#FFFFFF" height="51.2813" rx="5" ry="5" style="stroke:#000000;stroke-width:1;" width="100.6953" x="1223.5" y="436.3438"/><text fill="#000000" font-family="Inter" font-size="12" font-weight="bold" lengthAdjust="spacing" textLength="74.0098" x="1233.5" y="451.8008">GeminiClient</text><text fill="#000000" font-family="Inter" font-size="12" lengthAdjust="spacing" textLength="80.6953" x="1233.5" y="466.8945">Analysis &#183; Chat</text><text fill="#000000" font-family="Inter" font-size="12" lengthAdjust="spacing" textLength="69.334" x="1233.5" y="481.9883">JSON &#183; OCR</text></g><!--entity Report--><g id="elem_Report"><rect fill="#FFFFFF" height="51.2813" rx="5" ry="5" style="stroke:#000000;stroke-width:1;" width="129.7227" x="1385" y="436.3438"/><text fill="#000000" font-family="Inter" font-size="12" font-weight="bold" lengthAdjust="spacing" textLength="96.0176" x="1395" y="451.8008">ReportGenerator</text><text fill="#000000" font-family="Inter" font-size="12" lengthAdjust="spacing" textLength="109.7227" x="1395" y="466.8945">Jinja2 &#8594; WeasyPrint</text><text fill="#000000" font-family="Inter" font-size="12" lengthAdjust="spacing" textLength="37.6875" x="1395" y="481.9883">&#8594; PDF</text></g><!--entity User--><g id="elem_User"><ellipse cx="360.8428" cy="95.3438" fill="#E0F2FE" rx="8" ry="8" style="stroke:#000000;stroke-width:1;"/><path d="M360.8428,103.3438 L360.8428,130.3438 M347.8428,111.3438 L373.8428,111.3438 M360.8428,130.3438 L347.8428,145.3438 M360.8428,130.3438 L373.8428,145.3438 " fill="none" style="stroke:#000000;stroke-width:1;"/><text fill="#000000" font-family="Inter" font-size="12" lengthAdjust="spacing" textLength="25.3359" x="327.5" y="159.8008">User</text><text fill="#000000" font-family="Inter" font-size="12" lengthAdjust="spacing" textLength="66.6855" x="327.5" y="174.8945">(React SPA)</text></g><!--entity Mongo--><g id="elem_Mongo"><path d="M129,584.3438 C129,574.3438 187.8496,574.3438 187.8496,574.3438 C187.8496,574.3438 246.6992,574.3438 246.6992,584.3438 L246.6992,623.5313 C246.6992,633.5313 187.8496,633.5313 187.8496,633.5313 C187.8496,633.5313 129,633.5313 129,623.5313 L129,584.3438 " fill="#FEE2E2" style="stroke:#000000;stroke-width:1;"/><path d="M129,584.3438 C129,594.3438 187.8496,594.3438 187.8496,594.3438 C187.8496,594.3438 246.6992,594.3438 246.6992,584.3438 " fill="none" style="stroke:#000000;stroke-width:1;"/><text fill="#000000" font-family="Inter" font-size="12" lengthAdjust="spacing" textLength="83.373" x="139" y="610.8008">MongoDB Atlas</text><text fill="#000000" font-family="Inter" font-size="12" lengthAdjust="spacing" textLength="97.6992" x="139" y="625.8945">(users + sessions)</text></g><!--entity GeminiAPI--><g id="elem_GeminiAPI"><path d="M609.5142,583.7568 C612.1924,577.4826 617.9138,576.5932 622.57,581.4331 C625.391,575.6928 630.6867,576.2708 633.9144,580.9921 C638.261,574.9585 642.5622,574.4882 647.6466,580.1238 C650.579,573.7919 656.5368,573.9072 660.2788,579.2477 C663.8369,571.4978 670.7195,572.5316 674.4032,579.1242 C678.2542,572.3117 684.8163,573.4237 688.1231,579.6948 C692.8354,575.0131 698.37,575.3093 700.5615,582.366 C703.8934,576.864 709.1826,575.9728 712.8591,581.9984 C719.3117,585.0991 720.6042,589.1757 715.7849,594.8438 C720.2481,598.2356 721.3791,602.5024 715.6388,605.7576 C719.844,608.965 719.1657,613.561 714.4569,615.7099 C719.9794,619.828 719.7618,624.0327 713.668,627.3646 C710.033,634.9684 704.1959,634.3066 699.863,628.0602 C697.479,633.7859 692.279,634.9898 688.1596,629.9461 C685.0874,636.9853 679.2442,637.7614 674.7821,631.3259 C669.9614,639.0452 664.825,638.3135 660.2389,631.0974 C656.6604,635.7781 651.1679,636.6553 648.1546,630.4689 C643.3419,637.4063 637.2953,634.9051 634.3258,628.5512 C631.4777,634.2192 625.6447,633.6791 622.5398,628.8391 C617.7671,635.2766 611.2786,635.2523 607.5885,627.6835 C602.2367,624.1415 602.2676,618.985 607.7578,615.5949 C602.365,614.6075 600.0033,609.9035 604.3227,605.5836 C599.3336,600.9182 598.6855,595.9612 606.0488,592.9887 C603.2317,588.5837 604.1539,585.0921 609.5142,583.7568 " fill="#FEE2E2" style="stroke:#000000;stroke-width:1;"/><text fill="#000000" font-family="Inter" font-size="12" lengthAdjust="spacing" textLength="90.7031" x="614.5" y="601.3008">Gemini 2.5 Flash</text><text fill="#000000" font-family="Inter" font-size="12" lengthAdjust="spacing" textLength="56.666" x="614.5" y="616.3945">(Free Tier)</text></g><!--entity PresidioLocal--><g id="elem_PresidioLocal"><rect fill="#F3E8FF" height="60.1875" rx="5" ry="5" style="stroke:#000000;stroke-width:1;" width="170.7285" x="815.5" y="573.8438"/><rect fill="#F3E8FF" height="10" style="stroke:#000000;stroke-width:1;" width="15" x="966.2285" y="578.8438"/><rect fill="#F3E8FF" height="2" style="stroke:#000000;stroke-width:1;" width="4" x="964.2285" y="580.8438"/><rect fill="#F3E8FF" height="2" style="stroke:#000000;stroke-width:1;" width="4" x="964.2285" y="584.8438"/><text fill="#000000" font-family="Inter" font-size="12" lengthAdjust="spacing" textLength="91.043" x="830.5" y="606.3008">Presidio + spaCy</text><text fill="#000000" font-family="Inter" font-size="12" lengthAdjust="spacing" textLength="130.7285" x="830.5" y="621.3945">en_core_web_sm (local)</text></g><g id="elem_GMN45"><path d="M345,566.3438 L345,641.8125 A5,5 0 0 0 350,646.8125 L463.6621,646.8125 A5,5 0 0 0 468.6621,641.8125 L468.6621,571.3438 L458.6621,561.3438 L411,561.3438 L407,487.5538 L403,561.3438 L350,561.3438 A5,5 0 0 0 345,566.3438 " fill="#FFFFFF" style="stroke:#000000;stroke-width:1;"/><path d="M458.6621,561.3438 L458.6621,568.8438 A2.5,2.5 0 0 0 461.1621,571.3438 L468.6621,571.3438 L458.6621,561.3438 " fill="#FFFFFF" style="stroke:#000000;stroke-width:1;"/><text fill="#000000" font-family="Inter" font-size="12" font-weight="bold" lengthAdjust="spacing" textLength="102.6621" x="351" y="578.8008">Hybrid RAG Flow:</text><text fill="#000000" font-family="Inter" font-size="12" lengthAdjust="spacing" textLength="99.6973" x="351" y="593.8945">BM25 (free, &lt;5ms)</text><text fill="#000000" font-family="Inter" font-size="12" lengthAdjust="spacing" textLength="99.7441" x="351" y="608.9883">&#8594; low confidence?</text><text fill="#000000" font-family="Inter" font-size="12" lengthAdjust="spacing" textLength="100.3945" x="351" y="624.082">&#8594; LLM tree search</text><text fill="#000000" font-family="Inter" font-size="12" lengthAdjust="spacing" textLength="77.7129" x="351" y="639.1758">&#8594; Gemini chat</text></g><g id="elem_GMN48"><path d="M1047,573.8438 L1047,634.2188 A5,5 0 0 0 1052,639.2188 L1188.3965,639.2188 A5,5 0 0 0 1193.3965,634.2188 L1193.3965,578.8438 L1183.3965,568.8438 L1079.33,568.8438 L969.3,487.5538 L1071.33,568.8438 L1052,568.8438 A5,5 0 0 0 1047,573.8438 " fill="#FFFFFF" style="stroke:#000000;stroke-width:1;"/><path d="M1183.3965,568.8438 L1183.3965,576.3438 A2.5,2.5 0 0 0 1185.8965,578.8438 L1193.3965,578.8438 L1183.3965,568.8438 " fill="#FFFFFF" style="stroke:#000000;stroke-width:1;"/><text fill="#000000" font-family="Inter" font-size="12" font-weight="bold" lengthAdjust="spacing" textLength="93.3691" x="1053" y="586.3008">Zero external PII</text><text fill="#000000" font-family="Inter" font-size="12" lengthAdjust="spacing" textLength="125.3965" x="1053" y="601.3945">All anonymization local.</text><text fill="#000000" font-family="Inter" font-size="12" lengthAdjust="spacing" textLength="123.3809" x="1053" y="616.4883">Aadhaar, PAN, GSTIN,</text><text fill="#000000" font-family="Inter" font-size="12" lengthAdjust="spacing" textLength="124.0488" x="1053" y="631.582">Voter ID, Passport, etc.</text></g><!--link User to API--><g id="link_User_API"><path d="M361,177.3737 C361,189.7338 361,203.5788 361,217.4294 C361,224.3547 361,231.2814 361,238.0246 C361,239.7104 361,235.3847 361,237.0447 " fill="none" id="User-to-API" style="stroke:#000000;stroke-width:1;"/><polygon fill="#000000" points="361,243.0447,365,234.0447,361,238.0447,357,234.0447,361,243.0447" style="stroke:#000000;stroke-width:1;"/><text fill="#000000" font-family="Inter" font-size="12" lengthAdjust="spacing" textLength="77.666" x="362" y="215.8008">HTTPS + JWT</text></g><!--link Auth to AuthSvc--><g id="link_Auth_AuthSvc"><path d="M463.9,321.4438 C444.16,338.2338 417,361.3438 417,361.3438 C417,361.3438 131,369.3438 131,369.3438 C131,369.3438 104.4019,412.0307 87.8919,438.5407 " fill="none" id="Auth-to-AuthSvc" style="stroke:#000000;stroke-width:1;"/><polygon fill="#000000" points="84.72,443.6337,92.8732,438.1087,87.3632,439.3895,86.0824,433.8796,84.72,443.6337" style="stroke:#000000;stroke-width:1;"/></g><!--link Docs to Parser--><g id="link_Docs_Parser"><path d="M682.26,321.3938 C661.53,349.1138 624.0128,399.2984 600.0728,431.3184 " fill="none" id="Docs-to-Parser" style="stroke:#000000;stroke-width:1;"/><polygon fill="#000000" points="596.48,436.1238,605.0728,431.3108,599.474,432.1193,598.6656,426.5205,596.48,436.1238" style="stroke:#000000;stroke-width:1;"/></g><!--link Docs to PII--><g id="link_Docs_PII"><path d="M722.42,321.4838 C764.2,347.5938 839,394.3438 839,394.3438 C839,394.3438 867.9055,413.9542 895.8255,432.9042 " fill="none" id="Docs-to-PII" style="stroke:#000000;stroke-width:1;"/><polygon fill="#000000" points="900.79,436.2738,895.5896,427.9098,896.6529,433.4658,891.0969,434.5291,900.79,436.2738" style="stroke:#000000;stroke-width:1;"/></g><!--link Docs to Session--><g id="link_Docs_Session"><path d="M696.27,321.7338 C698.03,345.8038 701,386.3438 701,386.3438 C701,386.3438 717.7883,409.506 733.4983,431.176 " fill="none" id="Docs-to-Session" style="stroke:#000000;stroke-width:1;"/><polygon fill="#000000" points="737.02,436.0338,734.976,426.3993,734.0853,431.9856,728.499,431.0949,737.02,436.0338" style="stroke:#000000;stroke-width:1;"/></g><!--link Docs to HTOC--><g id="link_Docs_HTOC"><path d="M659.6,321.4438 C624.84,338.2338 577,361.3438 577,361.3438 C577,361.3438 246,369.3438 246,369.3438 C246,369.3438 243.407,403.2412 241.337,430.3412 " fill="none" id="Docs-to-HTOC" style="stroke:#000000;stroke-width:1;"/><polygon fill="#000000" points="240.88,436.3238,245.5538,427.6545,241.2608,431.3383,237.5771,427.0452,240.88,436.3238" style="stroke:#000000;stroke-width:1;"/><text fill="#000000" font-family="Inter" font-size="12" lengthAdjust="spacing" textLength="62.7129" x="247" y="382.8008">background</text></g><!--link Docs to BM25--><g id="link_Docs_BM25"><path d="M659.6,321.4438 C624.84,338.2338 577,361.3438 577,361.3438 C577,361.3438 325,369.3438 325,369.3438 C325,369.3438 325,386.3438 325,386.3438 C325,386.3438 351.3984,410.3298 375.2584,431.9998 " fill="none" id="Docs-to-BM25" style="stroke:#000000;stroke-width:1;"/><polygon fill="#000000" points="379.7,436.0338,375.7269,427.0218,375.9987,432.6722,370.3484,432.9439,379.7,436.0338" style="stroke:#000000;stroke-width:1;"/><text fill="#000000" font-family="Inter" font-size="12" lengthAdjust="spacing" textLength="62.7129" x="326" y="382.8008">background</text></g><!--link Analysis to Gemini--><g id="link_Analysis_Gemini"><path d="M1153.53,321.4238 C1224.05,340.6838 1329,369.3438 1329,369.3438 C1329,369.3438 1329,386.3438 1329,386.3438 C1329,386.3438 1311.8739,409.5369 1295.8739,431.2069 " fill="none" id="Analysis-to-Gemini" style="stroke:#000000;stroke-width:1;"/><polygon fill="#000000" points="1292.31,436.0338,1300.8738,431.1694,1295.2799,432.0114,1294.4379,426.4175,1292.31,436.0338" style="stroke:#000000;stroke-width:1;"/></g><!--link Analysis to Tree--><g id="link_Analysis_Tree"><path d="M1141.45,321.4238 C1198.33,340.6838 1283,369.3438 1283,369.3438 C1283,369.3438 1283,386.3438 1283,386.3438 C1283,386.3438 1194,394.3438 1194,394.3438 C1194,394.3438 1171.1433,413.3374 1148.4033,432.2474 " fill="none" id="Analysis-to-Tree" style="stroke:#000000;stroke-width:1;"/><polygon fill="#000000" points="1143.79,436.0838,1153.2675,433.4048,1147.6344,432.8868,1148.1524,427.2537,1143.79,436.0838" style="stroke:#000000;stroke-width:1;"/></g><!--link Analysis to PII--><g id="link_Analysis_PII"><path d="M1123.84,321.4238 C1160.88,340.6838 1216,369.3438 1216,369.3438 C1216,369.3438 1216,386.3438 1216,386.3438 C1216,386.3438 1035,394.3438 1035,394.3438 C1035,394.3438 1006.0945,413.9542 978.1745,432.9042 " fill="none" id="Analysis-to-PII" style="stroke:#000000;stroke-width:1;"/><polygon fill="#000000" points="973.21,436.2738,982.9031,434.5291,977.3471,433.4658,978.4104,427.9098,973.21,436.2738" style="stroke:#000000;stroke-width:1;"/></g><!--link Analysis to Session--><g id="link_Analysis_Session"><path d="M1062.2,321.4438 C1033.92,338.2338 995,361.3438 995,361.3438 C995,361.3438 839,394.3438 839,394.3438 C839,394.3438 814.8638,413.4489 790.9838,432.3589 " fill="none" id="Analysis-to-Session" style="stroke:#000000;stroke-width:1;"/><polygon fill="#000000" points="786.28,436.0838,795.8189,433.6324,790.1998,432.9797,790.8525,427.3607,786.28,436.0838" style="stroke:#000000;stroke-width:1;"/></g><!--link Analysis to Report--><g id="link_Analysis_Report"><path d="M1156.51,319.3338 C1240.38,338.5338 1375,369.3438 1375,369.3438 C1375,369.3438 1403.8868,404.5831 1426.0968,431.6831 " fill="none" id="Analysis-to-Report" style="stroke:#000000;stroke-width:1;"/><polygon fill="#000000" points="1429.9,436.3238,1427.2889,426.8273,1426.7306,432.4566,1421.1014,431.8983,1429.9,436.3238" style="stroke:#000000;stroke-width:1;"/></g><!--link Chat to BM25--><g id="link_Chat_BM25"><path d="M876.4,321.4438 C849.3,338.2338 812,361.3438 812,361.3438 C812,361.3438 696,369.3438 696,369.3438 C696,369.3438 486,394.3438 486,394.3438 C486,394.3438 463.4698,413.3094 441.0098,432.2194 " fill="none" id="Chat-to-BM25" style="stroke:#000000;stroke-width:1;"/><polygon fill="#000000" points="436.42,436.0838,445.881,433.3471,440.2449,432.8634,440.7285,427.2273,436.42,436.0838" style="stroke:#000000;stroke-width:1;"/><text fill="#000000" font-family="Inter" font-size="12" lengthAdjust="spacing" textLength="97.377" x="697" y="382.8008">1. keyword search</text></g><!--link Chat to Tree--><g id="link_Chat_Tree"><path d="M928.32,321.5338 C962.33,345.5738 1020,386.3438 1020,386.3438 C1020,386.3438 1034,394.3438 1034,394.3438 C1034,394.3438 1056.8567,413.3374 1079.5967,432.2474 " fill="none" id="Chat-to-Tree" style="stroke:#000000;stroke-width:1;"/><polygon fill="#000000" points="1084.21,436.0838,1079.8476,427.2537,1080.3656,432.8868,1074.7325,433.4048,1084.21,436.0838" style="stroke:#000000;stroke-width:1;"/><text fill="#000000" font-family="Inter" font-size="12" lengthAdjust="spacing" textLength="80.707" x="1021" y="382.8008">2. LLM fallback</text></g><!--link Chat to Gemini--><g id="link_Chat_Gemini"><path d="M931.3,321.4438 C958.11,338.2338 995,361.3438 995,361.3438 C995,361.3438 1113,369.3438 1113,369.3438 C1113,369.3438 1193,394.3438 1193,394.3438 C1193,394.3438 1216.1729,413.3662 1239.2029,432.2762 " fill="none" id="Chat-to-Gemini" style="stroke:#000000;stroke-width:1;"/><polygon fill="#000000" points="1243.84,436.0838,1239.4227,427.281,1239.9758,432.9108,1234.346,433.4638,1243.84,436.0838" style="stroke:#000000;stroke-width:1;"/><text fill="#000000" font-family="Inter" font-size="12" lengthAdjust="spacing" textLength="36.0234" x="1168" y="382.8008">3. chat</text></g><!--link Chat to PII--><g id="link_Chat_PII"><path d="M907.59,321.3938 C913.44,349.1138 923.8024,398.2328 930.5524,430.2528 " fill="none" id="Chat-to-PII" style="stroke:#000000;stroke-width:1;"/><polygon fill="#000000" points="931.79,436.1238,933.8475,426.4922,930.7586,431.2313,926.0196,428.1424,931.79,436.1238" style="stroke:#000000;stroke-width:1;"/></g><!--link Chat to Session--><g id="link_Chat_Session"><path d="M882.19,321.4238 C857.6,340.6838 821,369.3438 821,369.3438 C821,369.3438 795.7503,404.3578 776.2003,431.4578 " fill="none" id="Chat-to-Session" style="stroke:#000000;stroke-width:1;"/><polygon fill="#000000" points="772.69,436.3238,781.1995,431.365,775.6153,432.2688,774.7115,426.6846,772.69,436.3238" style="stroke:#000000;stroke-width:1;"/></g><!--link AuthSvc to Mongo--><g id="link_AuthSvc_Mongo"><path d="M87.98,480.0137 C107.06,503.4438 137.7415,541.1311 160.8015,569.4511 " fill="none" id="AuthSvc-to-Mongo" style="stroke:#000000;stroke-width:1;"/><polygon fill="#000000" points="164.59,574.1038,162.009,564.5991,161.4329,570.2265,155.8055,569.6504,164.59,574.1038" style="stroke:#000000;stroke-width:1;"/></g><!--link Session to Mongo--><g id="link_Session_Mongo"><path d="M712,487.3738 C690.92,499.4038 670,511.3438 670,511.3438 C670,511.3438 597,519.3438 597,519.3438 C597,519.3438 315,561.3438 315,561.3438 C315,561.3438 285.903,570.8494 252.743,581.6894 " fill="none" id="Session-to-Mongo" style="stroke:#000000;stroke-width:1;"/><polygon fill="#000000" points="247.04,583.5538,256.8374,584.5593,251.7925,582.0002,254.3516,576.9553,247.04,583.5538" style="stroke:#000000;stroke-width:1;"/></g><!--link Gemini to GeminiAPI--><g id="link_Gemini_GeminiAPI"><path d="M1233.03,487.3738 C1212.93,499.4038 1193,511.3438 1193,511.3438 C1193,511.3438 785,561.3438 785,561.3438 C785,561.3438 758.2141,570.2323 726.3641,580.8123 " fill="none" id="Gemini-to-GeminiAPI" style="stroke:#000000;stroke-width:1;"/><polygon fill="#000000" points="720.67,582.7038,730.4721,583.6626,725.4151,581.1275,727.9501,576.0705,720.67,582.7038" style="stroke:#000000;stroke-width:1;"/></g><!--link HTOC to GeminiAPI--><g id="link_HTOC_GeminiAPI"><path d="M284.02,487.3738 C306.1,499.4038 328,511.3438 328,511.3438 C328,511.3438 497.9456,558.1797 593.7056,584.5697 " fill="none" id="HTOC-to-GeminiAPI" style="stroke:#000000;stroke-width:1;"/><polygon fill="#000000" points="599.49,586.1637,591.8762,579.9164,594.6697,584.8353,589.7507,587.6289,599.49,586.1637" style="stroke:#000000;stroke-width:1;"/></g><!--link Tree to GeminiAPI--><g id="link_Tree_GeminiAPI"><path d="M1073.53,487.3738 C1053.69,499.4038 1034,511.3438 1034,511.3438 C1034,511.3438 965,519.3438 965,519.3438 C965,519.3438 785,561.3438 785,561.3438 C785,561.3438 758.2141,570.2323 726.3641,580.8123 " fill="none" id="Tree-to-GeminiAPI" style="stroke:#000000;stroke-width:1;"/><polygon fill="#000000" points="720.67,582.7038,730.4721,583.6626,725.4151,581.1275,727.9501,576.0705,720.67,582.7038" style="stroke:#000000;stroke-width:1;"/></g><!--link Parser to GeminiAPI--><g id="link_Parser_GeminiAPI"><path d="M592.47,487.5538 C606.54,511.5738 624.8773,542.8866 639.7973,568.3566 " fill="none" id="Parser-to-GeminiAPI" style="stroke:#000000;stroke-width:1;stroke-dasharray:7.0,7.0;"/><polygon fill="#000000" points="642.83,573.5338,641.7324,563.7462,640.3028,569.2195,634.8295,567.7898,642.83,573.5338" style="stroke:#000000;stroke-width:1;"/><text fill="#000000" font-family="Inter" font-size="12" lengthAdjust="spacing" textLength="108.709" x="620" y="532.8008">OCR (scanned only)</text></g><!--link PII to PresidioLocal--><g id="link_PII_PresidioLocal"><path d="M930.65,487.5538 C924.47,511.5738 916.5844,542.2528 910.0344,567.7228 " fill="none" id="PII-to-PresidioLocal" style="stroke:#000000;stroke-width:1;"/><polygon fill="#000000" points="908.54,573.5338,914.6555,565.8136,909.7853,568.6913,906.9076,563.8211,908.54,573.5338" style="stroke:#000000;stroke-width:1;"/></g><!--SRC=[dLPVR-D447_tfnZI1rfVcxOv5K65GAxZz79AaoZszGuKgThOssIfinljRbfy28addX62py8x7wMVX9crazWKGKIQX-vl_kxCRsRpYLtm9OTLpeJqp8EGAwRP4cOiVPXhjPPPg7AbuQ0NqLzD8-FtR9tRdf9soD13Nrgk_raUYuySpZireLcmJ3q9EOTxbXjUarGnjUGQpizgWXLcnEOyjaNEGVFKCZdFwvQvaDmMAxoBoWiwr6HIPTpm5NnMzwYPV23muipphB3erlS7VCvo28mHnle-FF_q6rnXO2up27Iw41O3hpMVIi_x59v__-NVln24oMWI_xUYnrABLMwzCrnFvU64undYSN3K0cQ0K3Y8pdeTxC1-SSTz60JVH9CzGczh2ItVTuQiu1elVzXZnY9G9a6IW-vL5FGY-C43_AHCPz0QZ-84JjdQBaurdsFPw0OrC5Tp8KiFU7nXcAbqlUJIcjFrAbSicyhhA84wlh0gFJ6MsRLnRhegDI_ZIvON7_d6kZfYHYkbRHcT86ph2zDqmUofiPgpvIPnWfnHYFzuF-vNypYQtFR3wF_LFURwKQJS-BwB6z-6sF3FUnVH5urYOuEmY9Moxq_bs_S9l89PgekLtHOvVamRDjsgbcEc3NKMhrdShCVT7lpv1tH7uGSi6ryAAU1M6A4aZCA9SrOQD7oD-_r0AbaiSQPBLveRaGa5XxbAMNuqbUSTN0QPO9B6LCqbQPQjG-E6ivWRYbUxJpXvrwMiKeR39kTJcII3I-WioggKwWqNRv9HUBKMULPcyqPmpMXGCHL0qLG-2WQ3mGtcmeoIwDEv8hE6dwkRpaNCoPJSq6dqm5PYAbyvNPWfPSeAawnXccZETwOKIx97CMUM6qo8Z95StDcIQiEsh7kO2smFMMzOIZKWyc67uz6GJfkUb1OD9nF7yckEEvFX6d6y4F8xre7ddt-5ztZnOgo5H6TqnhuxHwNLlkoEFYJHP1WCzY1snYoRCOEylb5ohhfN4DYSOIqEryWcWtmrPIDDkLcS5hqmKIVgU6ckrdYhYf2TzWNqq7Y1rZqi7YJOuADQ8TnQsfYgvKf9h2IEzeQL66p5mcAAy5sgDBzxuhCxizomjQHbfJmW2BsznidhxLUMS3GSHc7I7mttsV9kaP-SVEMMwIKIAnd7c24EiUVHu9QoQe9fppcWciBT6QTeUzZCn1PmXBkiFU0x4J6tAVAsV2DvHQq6vXZRG2Xy0zYaq00hTdb4udhmrdaR7dZnf92wnWrDQwT3mKYdqtOZYxyDSagsfb7H0dLUjy6jwPsC4jiUDabX5wlrueOX-XxV9ypJgwhiT1q1lSgYXbJ1Td6nRPwhRnDoQJUXicVGRjT0p1g760vDogJa6IYP5qSUPbrcNoVXVkGRZf9e7zf9PJakC6lL4jJzPe7XxYncMcGm2QvnnjJJfUyZxFfqU8zNEeOlBvRc236g72f0gkIzoBXC-TSLIcsYxLRriaAhmb5_FFhfH0buVq-ZV0ny_rkk5V2gBuIwD88y1rOzDCnINzp0jad4iWLZ-XZ6mV0OhkEaFpn6-1RTQ-Xt4MV64FkEWTkqlSlWBm00]--></g></svg>