<svg xmlns="http://www.w3.org/2000/svg" xmlns:xlink="http://www.w3.org/1999/xlink" contentStyleType="text/css" height="2283px" preserveAspectRatio="none" style="width:1523px;height:2283px;background:#FEFEFE;" version="1.1" viewBox="0 0 1523 2283" width="1523px" zoomAndPan="magnify"><title>**Document Upload Flow** &#8212; Digital &amp; Scanned PDF</title><defs/><g><rect fill="#FEFEFE" height="2283" style="stroke:none;stroke-width:1;" width="1523" x="0" y="0"/><text fill="#000000" font-family="Inter" font-size="22" font-weight="bold" lengthAdjust="spacing" textLength="244.4385" x="501.759" y="37.8379">Document Upload Flow</text><text fill="#000000" font-family="Inter" font-size="22" font-weight="bold" lengthAdjust="spacing" textLength="265.9443" x="752.3098" y="37.8379">&#8212; Digital &amp; Scanned PDF</text><rect fill="#FFFFFF" height="1785.5156" style="stroke:#94A3B8;stroke-width:1;" width="10" x="244.5112" y="200.1797"/><rect fill="#FFFFFF" height="68.6719" style="stroke:#94A3B8;stroke-width:1;" width="10" x="426.9795" y="228.0156"/><rect fill="#FFFFFF" height="68.6719" style="stroke:#94A3B8;stroke-width:1;" width="10" x="547.4102" y="402.0313"/><rect fill="#E8F5E9" height="127.1797" style="stroke:#94A3B8;stroke-width:1;" width="10" x="547.4102" y="1537.4844"/><rect fill="#FFFFFF" height="137.1797" style="stroke:#94A3B8;stroke-width:1;" width="10" x="738.5254" y="498.5391"/><rect fill="#FFFFFF" height="69.5078" style="stroke:#94A3B8;stroke-width:1;" width="10" x="970.606" y="677.3906"/><rect fill="#FFFFFF" height="55.6719" style="stroke:#94A3B8;stroke-width:1;" width="10" x="970.606" y="1168.1094"/><rect fill="#FFFFFF" height="55.6719" style="stroke:#94A3B8;stroke-width:1;" width="10" x="970.606" y="1336.9609"/><rect fill="#E8F5E9" height="124.3438" style="stroke:#94A3B8;stroke-width:1;" width="10" x="1085.2144" y="877.9141"/><rect fill="#E8F5E9" height="96.3438" style="stroke:#94A3B8;stroke-width:1;" width="10" x="1204.5127" y="1030.0938"/><rect fill="#FFFFFF" height="1612.3359" rx="4" ry="4" style="stroke:#CBD5E1;stroke-width:1;" width="1491.0132" x="15" y="366.3594"/><path d="M15,1231.7813 L1506.0132,1231.7813 L1506.0132,1974.6953 A4,4 0 0 1 1502.0132,1978.6953 L19,1978.6953 A4,4 0 0 1 15,1974.6953 L15,1231.7813 " fill="#FFFFFF" style="stroke:none;stroke-width:1;"/><rect fill="#FFFFFF" height="85.3438" rx="4" ry="4" style="stroke:#CBD5E1;stroke-width:1;" width="956.9546" x="484.144" y="1552.4844"/><line style="stroke:#94A3B8;stroke-width:1;" x1="42" x2="42" y1="128.5078" y2="2204.5469"/><line style="stroke:#94A3B8;stroke-width:1;" x1="248.9363" x2="248.9363" y1="128.5078" y2="2204.5469"/><line style="stroke:#94A3B8;stroke-width:1;" x1="431.8149" x2="431.8149" y1="128.5078" y2="2204.5469"/><line style="stroke:#94A3B8;stroke-width:1;" x1="552.144" x2="552.144" y1="128.5078" y2="2204.5469"/><line style="stroke:#94A3B8;stroke-width:1;" x1="742.762" x2="742.762" y1="128.5078" y2="2204.5469"/><line style="stroke:#94A3B8;stroke-width:1;" x1="974.6995" x2="974.6995" y1="128.5078" y2="2204.5469"/><line style="stroke:#94A3B8;stroke-width:1;" x1="1089.5125" x2="1089.5125" y1="128.5078" y2="2204.5469"/><line style="stroke:#94A3B8;stroke-width:1;" x1="1208.7185" x2="1208.7185" y1="128.5078" y2="2204.5469"/><line style="stroke:#94A3B8;stroke-width:1;" x1="1365.7188" x2="1365.7188" y1="128.5078" y2="2204.5469"/><line style="stroke:#94A3B8;stroke-width:1;" x1="1468.0986" x2="1468.0986" y1="128.5078" y2="2204.5469"/><text fill="#000000" font-family="Inter" font-size="11" lengthAdjust="spacing" textLength="28.123" x="25" y="126.0908">Client</text><ellipse cx="42.0615" cy="62.6719" fill="#E0F2FE" rx="8" ry="8" style="stroke:#000000;stroke-width:1;"/><path d="M42.0615,70.6719 L42.0615,97.6719 M29.0615,78.6719 L55.0615,78.6719 M42.0615,97.6719 L29.0615,112.6719 M42.0615,97.6719 L55.0615,112.6719 " fill="none" style="stroke:#000000;stroke-width:1;"/><text fill="#000000" font-family="Inter" font-size="11" lengthAdjust="spacing" textLength="28.123" x="25" y="2214.9658">Client</text><ellipse cx="42.0615" cy="2226.3828" fill="#E0F2FE" rx="8" ry="8" style="stroke:#000000;stroke-width:1;"/><path d="M42.0615,2234.3828 L42.0615,2261.3828 M29.0615,2242.3828 L55.0615,2242.3828 M42.0615,2261.3828 L29.0615,2276.3828 M42.0615,2261.3828 L55.0615,2276.3828 " fill="none" style="stroke:#000000;stroke-width:1;"/><rect fill="#DBEAFE" height="41.6719" rx="4" ry="4" style="stroke:#64748B;stroke-width:1;" width="97.1499" x="200.9363" y="85.8359"/><text fill="#000000" font-family="Inter" font-size="11" lengthAdjust="spacing" textLength="83.1499" x="207.9363" y="104.2549">DocumentRouter</text><text fill="#000000" font-family="Inter" font-size="11" lengthAdjust="spacing" textLength="69.0991" x="214.9617" y="118.0908">&#171;/documents&#187;</text><rect fill="#DBEAFE" height="41.6719" rx="4" ry="4" style="stroke:#64748B;stroke-width:1;" width="97.1499" x="200.9363" y="2203.5469"/><text fill="#000000" font-family="Inter" font-size="11" lengthAdjust="spacing" textLength="83.1499" x="207.9363" y="2221.9658">DocumentRouter</text><text fill="#000000" font-family="Inter" font-size="11" lengthAdjust="spacing" textLength="69.0991" x="214.9617" y="2235.8018">&#171;/documents&#187;</text><rect fill="#FEF3C7" height="41.6719" rx="4" ry="4" style="stroke:#64748B;stroke-width:1;" width="84.3291" x="389.8149" y="85.8359"/><text fill="#000000" font-family="Inter" font-size="11" lengthAdjust="spacing" textLength="70.3291" x="396.8149" y="104.2549">Dependencies</text><text fill="#000000" font-family="Inter" font-size="11" lengthAdjust="spacing" textLength="68.4653" x="397.7468" y="118.0908">&#171;JWT Guard&#187;</text><rect fill="#FEF3C7" height="41.6719" rx="4" ry="4" style="stroke:#64748B;stroke-width:1;" width="84.3291" x="389.8149" y="2203.5469"/><text fill="#000000" font-family="Inter" font-size="11" lengthAdjust="spacing" textLength="70.3291" x="396.8149" y="2221.9658">Dependencies</text><text fill="#000000" font-family="Inter" font-size="11" lengthAdjust="spacing" textLength="68.4653" x="397.7468" y="2235.8018">&#171;JWT Guard&#187;</text><rect fill="#E8F5E9" height="27.8359" rx="4" ry="4" style="stroke:#64748B;stroke-width:1;" width="96.5322" x="504.144" y="99.6719"/><text fill="#000000" font-family="Inter" font-size="11" lengthAdjust="spacing" textLength="82.5322" x="511.144" y="118.0908">DocumentParser</text><rect fill="#E8F5E9" height="27.8359" rx="4" ry="4" style="stroke:#64748B;stroke-width:1;" width="96.5322" x="504.144" y="2203.5469"/><text fill="#000000" font-family="Inter" font-size="11" lengthAdjust="spacing" textLength="82.5322" x="511.144" y="2221.9658">DocumentParser</text><rect fill="#E8F5E9" height="41.6719" rx="4" ry="4" style="stroke:#64748B;stroke-width:1;" width="85.5269" x="700.762" y="85.8359"/><text fill="#000000" font-family="Inter" font-size="11" lengthAdjust="spacing" textLength="71.5269" x="707.762" y="104.2549">PIIAnonymizer</text><text fill="#000000" font-family="Inter" font-size="11" lengthAdjust="spacing" textLength="51.9761" x="717.5374" y="118.0908">&#171;Presidio&#187;</text><rect fill="#E8F5E9" height="41.6719" rx="4" ry="4" style="stroke:#64748B;stroke-width:1;" width="85.5269" x="700.762" y="2203.5469"/><text fill="#000000" font-family="Inter" font-size="11" lengthAdjust="spacing" textLength="71.5269" x="707.762" y="2221.9658">PIIAnonymizer</text><text fill="#000000" font-family="Inter" font-size="11" lengthAdjust="spacing" textLength="51.9761" x="717.5374" y="2235.8018">&#171;Presidio&#187;</text><rect fill="#E8F5E9" height="41.6719" rx="4" ry="4" style="stroke:#64748B;stroke-width:1;" width="89.813" x="930.6995" y="85.8359"/><text fill="#000000" font-family="Inter" font-size="11" lengthAdjust="spacing" textLength="75.813" x="937.6995" y="104.2549">SessionService</text><text fill="#000000" font-family="Inter" font-size="11" lengthAdjust="spacing" textLength="61.1499" x="945.031" y="118.0908">&#171;MongoDB&#187;</text><rect fill="#E8F5E9" height="41.6719" rx="4" ry="4" style="stroke:#64748B;stroke-width:1;" width="89.813" x="930.6995" y="2203.5469"/><text fill="#000000" font-family="Inter" font-size="11" lengthAdjust="spacing" textLength="75.813" x="937.6995" y="2221.9658">SessionService</text><text fill="#000000" font-family="Inter" font-size="11" lengthAdjust="spacing" textLength="61.1499" x="945.031" y="2235.8018">&#171;MongoDB&#187;</text><rect fill="#E8F5E9" height="27.8359" rx="4" ry="4" style="stroke:#64748B;stroke-width:1;" width="79.4038" x="1050.5125" y="99.6719"/><text fill="#000000" font-family="Inter" font-size="11" lengthAdjust="spacing" textLength="65.4038" x="1057.5125" y="118.0908">HTOCBuilder</text><rect fill="#E8F5E9" height="27.8359" rx="4" ry="4" style="stroke:#64748B;stroke-width:1;" width="79.4038" x="1050.5125" y="2203.5469"/><text fill="#000000" font-family="Inter" font-size="11" lengthAdjust="spacing" textLength="65.4038" x="1057.5125" y="2221.9658">HTOCBuilder</text><rect fill="#E8F5E9" height="27.8359" rx="4" ry="4" style="stroke:#64748B;stroke-width:1;" width="77.5884" x="1170.7185" y="99.6719"/><text fill="#000000" font-family="Inter" font-size="11" lengthAdjust="spacing" textLength="63.5884" x="1177.7185" y="118.0908">BM25Search</text><rect fill="#E8F5E9" height="27.8359" rx="4" ry="4" style="stroke:#64748B;stroke-width:1;" width="77.5884" x="1170.7185" y="2203.5469"/><text fill="#000000" font-family="Inter" font-size="11" lengthAdjust="spacing" textLength="63.5884" x="1177.7185" y="2221.9658">BM25Search</text><rect fill="#FEE2E2" height="41.6719" rx="4" ry="4" style="stroke:#64748B;stroke-width:1;" width="109.3799" x="1311.7188" y="85.8359"/><text fill="#000000" font-family="Inter" font-size="11" lengthAdjust="spacing" textLength="62.9653" x="1334.926" y="104.2549">GeminiClient</text><text fill="#000000" font-family="Inter" font-size="11" lengthAdjust="spacing" textLength="95.3799" x="1318.7188" y="118.0908">&#171;Gemini 2.5 Flash&#187;</text><rect fill="#FEE2E2" height="41.6719" rx="4" ry="4" style="stroke:#64748B;stroke-width:1;" width="109.3799" x="1311.7188" y="2203.5469"/><text fill="#000000" font-family="Inter" font-size="11" lengthAdjust="spacing" textLength="62.9653" x="1334.926" y="2221.9658">GeminiClient</text><text fill="#000000" font-family="Inter" font-size="11" lengthAdjust="spacing" textLength="95.3799" x="1318.7188" y="2235.8018">&#171;Gemini 2.5 Flash&#187;</text><text fill="#000000" font-family="Inter" font-size="11" lengthAdjust="spacing" textLength="48.9146" x="1441.0986" y="126.0908">MongoDB</text><path d="M1450.5559,78.6719 C1450.5559,68.6719 1468.5559,68.6719 1468.5559,68.6719 C1468.5559,68.6719 1486.5559,68.6719 1486.5559,78.6719 L1486.5559,104.6719 C1486.5559,114.6719 1468.5559,114.6719 1468.5559,114.6719 C1468.5559,114.6719 1450.5559,114.6719 1450.5559,104.6719 L1450.5559,78.6719 " fill="#FEE2E2" style="stroke:#000000;stroke-width:1.5;"/><path d="M1450.5559,78.6719 C1450.5559,88.6719 1468.5559,88.6719 1468.5559,88.6719 C1468.5559,88.6719 1486.5559,88.6719 1486.5559,78.6719 " fill="none" style="stroke:#000000;stroke-width:1.5;"/><text fill="#000000" font-family="Inter" font-size="11" lengthAdjust="spacing" textLength="48.9146" x="1441.0986" y="2214.9658">MongoDB</text><path d="M1450.5559,2227.3828 C1450.5559,2217.3828 1468.5559,2217.3828 1468.5559,2217.3828 C1468.5559,2217.3828 1486.5559,2217.3828 1486.5559,2227.3828 L1486.5559,2253.3828 C1486.5559,2263.3828 1468.5559,2263.3828 1468.5559,2263.3828 C1468.5559,2263.3828 1450.5559,2263.3828 1450.5559,2253.3828 L1450.5559,2227.3828 " fill="#FEE2E2" style="stroke:#000000;stroke-width:1.5;"/><path d="M1450.5559,2227.3828 C1450.5559,2237.3828 1468.5559,2237.3828 1468.5559,2237.3828 C1468.5559,2237.3828 1486.5559,2237.3828 1486.5559,2227.3828 " fill="none" style="stroke:#000000;stroke-width:1.5;"/><rect fill="#FFFFFF" height="1785.5156" style="stroke:#94A3B8;stroke-width:1;" width="10" x="244.5112" y="200.1797"/><rect fill="#FFFFFF" height="68.6719" style="stroke:#94A3B8;stroke-width:1;" width="10" x="426.9795" y="228.0156"/><rect fill="#FFFFFF" height="68.6719" style="stroke:#94A3B8;stroke-width:1;" width="10" x="547.4102" y="402.0313"/><rect fill="#E8F5E9" height="127.1797" style="stroke:#94A3B8;stroke-width:1;" width="10" x="547.4102" y="1537.4844"/><rect fill="#FFFFFF" height="137.1797" style="stroke:#94A3B8;stroke-width:1;" width="10" x="738.5254" y="498.5391"/><rect fill="#FFFFFF" height="69.5078" style="stroke:#94A3B8;stroke-width:1;" width="10" x="970.606" y="677.3906"/><rect fill="#FFFFFF" height="55.6719" style="stroke:#94A3B8;stroke-width:1;" width="10" x="970.606" y="1168.1094"/><rect fill="#FFFFFF" height="55.6719" style="stroke:#94A3B8;stroke-width:1;" width="10" x="970.606" y="1336.9609"/><rect fill="#E8F5E9" height="124.3438" style="stroke:#94A3B8;stroke-width:1;" width="10" x="1085.2144" y="877.9141"/><rect fill="#E8F5E9" height="96.3438" style="stroke:#94A3B8;stroke-width:1;" width="10" x="1204.5127" y="1030.0938"/><rect fill="#FFFFFF" height="3" rx="4" ry="4" style="stroke:#FFFFFF;stroke-width:1;" width="1511.0132" x="5" y="158.4258"/><line style="stroke:#CBD5E1;stroke-width:0.5;" x1="5" x2="1516.0132" y1="158.4258" y2="158.4258"/><line style="stroke:#CBD5E1;stroke-width:0.5;" x1="5" x2="1516.0132" y1="161.4258" y2="161.4258"/><rect fill="#FFFFFF" height="21.8359" rx="4" ry="4" style="stroke:#CBD5E1;stroke-width:1;" width="185.1392" x="667.937" y="148.5078"/><text fill="#000000" font-family="Inter" font-size="11" font-weight="bold" lengthAdjust="spacing" textLength="168.083" x="673.937" y="163.9268">POST /api/v1/documents/upload</text><polygon fill="#000000" points="232.5112,196.1797,242.5112,200.1797,232.5112,204.1797,236.5112,200.1797" style="stroke:#000000;stroke-width:1;"/><line style="stroke:#000000;stroke-width:1.5;" x1="42.0615" x2="238.5112" y1="200.1797" y2="200.1797"/><text fill="#000000" font-family="Inter" font-size="11" lengthAdjust="spacing" textLength="183.4497" x="49.0615" y="195.7627">POST file + doc_type + ocr_language</text><polygon fill="#000000" points="414.9795,224.0156,424.9795,228.0156,414.9795,232.0156,418.9795,228.0156" style="stroke:#000000;stroke-width:1;"/><line style="stroke:#000000;stroke-width:1.5;" x1="254.5112" x2="420.9795" y1="228.0156" y2="228.0156"/><text fill="#000000" font-family="Inter" font-size="11" lengthAdjust="spacing" textLength="153.4683" x="261.5112" y="223.5986">get_current_user(Bearer token)</text><line style="stroke:#000000;stroke-width:1.5;" x1="436.9795" x2="478.9795" y1="255.8516" y2="255.8516"/><line style="stroke:#000000;stroke-width:1.5;" x1="478.9795" x2="478.9795" y1="255.8516" y2="268.8516"/><line style="stroke:#000000;stroke-width:1.5;" x1="437.9795" x2="478.9795" y1="268.8516" y2="268.8516"/><polygon fill="#000000" points="447.9795,264.8516,437.9795,268.8516,447.9795,272.8516,443.9795,268.8516" style="stroke:#000000;stroke-width:1;"/><text fill="#000000" font-family="Inter" font-size="11" lengthAdjust="spacing" textLength="61.7461" x="443.9795" y="251.4346">decode JWT</text><polygon fill="#000000" points="265.5112,292.6875,255.5112,296.6875,265.5112,300.6875,261.5112,296.6875" style="stroke:#000000;stroke-width:1;"/><line style="stroke:#000000;stroke-width:1.5;stroke-dasharray:2.0,2.0;" x1="259.5112" x2="430.9795" y1="296.6875" y2="296.6875"/><text fill="#000000" font-family="Inter" font-size="11" lengthAdjust="spacing" textLength="53.8022" x="271.5112" y="292.2705">user_email</text><line style="stroke:#000000;stroke-width:1.5;" x1="254.5112" x2="296.5112" y1="338.3594" y2="338.3594"/><line style="stroke:#000000;stroke-width:1.5;" x1="296.5112" x2="296.5112" y1="338.3594" y2="351.3594"/><line style="stroke:#000000;stroke-width:1.5;" x1="255.5112" x2="296.5112" y1="351.3594" y2="351.3594"/><polygon fill="#000000" points="265.5112,347.3594,255.5112,351.3594,265.5112,355.3594,261.5112,351.3594" style="stroke:#000000;stroke-width:1;"/><text fill="#000000" font-family="Inter" font-size="11" lengthAdjust="spacing" textLength="107.0137" x="261.5112" y="320.1064">Validate file extension</text><text fill="#000000" font-family="Inter" font-size="11" lengthAdjust="spacing" textLength="87.3984" x="261.5112" y="333.9424">(PDF/DOCX only)</text><path d="M19,366.3594 L72.8369,366.3594 L72.8369,372.1953 L62.8369,382.1953 L15,382.1953 L15,370.3594 A4,4 0 0 1 19,366.3594 " fill="#F1F5F9" style="stroke:#CBD5E1;stroke-width:1;"/><rect fill="none" height="1612.3359" rx="4" ry="4" style="stroke:#CBD5E1;stroke-width:1;" width="1491.0132" x="15" y="366.3594"/><text fill="#000000" font-family="Inter" font-size="11" font-weight="bold" lengthAdjust="spacing" textLength="12.8369" x="30" y="378.7783">alt</text><text fill="#000000" font-family="Inter" font-size="11" font-weight="bold" lengthAdjust="spacing" textLength="110.9722" x="87.8369" y="379.7783">[doc_type = "digital"]</text><polygon fill="#000000" points="535.4102,398.0313,545.4102,402.0313,535.4102,406.0313,539.4102,402.0313" style="stroke:#000000;stroke-width:1;"/><line style="stroke:#000000;stroke-width:1.5;" x1="254.5112" x2="541.4102" y1="402.0313" y2="402.0313"/><text fill="#000000" font-family="Inter" font-size="11" lengthAdjust="spacing" textLength="153.9355" x="261.5112" y="397.6143">extract_async(content, "digital")</text><line style="stroke:#000000;stroke-width:1.5;" x1="557.4102" x2="599.4102" y1="429.8672" y2="429.8672"/><line style="stroke:#000000;stroke-width:1.5;" x1="599.4102" x2="599.4102" y1="429.8672" y2="442.8672"/><line style="stroke:#000000;stroke-width:1.5;" x1="558.4102" x2="599.4102" y1="442.8672" y2="442.8672"/><polygon fill="#000000" points="568.4102,438.8672,558.4102,442.8672,568.4102,446.8672,564.4102,442.8672" style="stroke:#000000;stroke-width:1;"/><text fill="#000000" font-family="Inter" font-size="11" lengthAdjust="spacing" textLength="157.1152" x="564.4102" y="425.4502">PyMuPDF: extract per-page text</text><polygon fill="#000000" points="265.5112,466.7031,255.5112,470.7031,265.5112,474.7031,261.5112,470.7031" style="stroke:#000000;stroke-width:1;"/><line style="stroke:#000000;stroke-width:1.5;stroke-dasharray:2.0,2.0;" x1="259.5112" x2="551.4102" y1="470.7031" y2="470.7031"/><text fill="#000000" font-family="Inter" font-size="11" lengthAdjust="spacing" textLength="103.9521" x="271.5112" y="466.2861">full_text, page_texts[]</text><polygon fill="#000000" points="726.5254,494.5391,736.5254,498.5391,726.5254,502.5391,730.5254,498.5391" style="stroke:#000000;stroke-width:1;"/><line style="stroke:#000000;stroke-width:1.5;" x1="254.5112" x2="732.5254" y1="498.5391" y2="498.5391"/><text fill="#000000" font-family="Inter" font-size="11" lengthAdjust="spacing" textLength="98.4307" x="261.5112" y="494.1221">anonymize(full_text)</text><line style="stroke:#000000;stroke-width:1.5;" x1="748.5254" x2="790.5254" y1="540.2109" y2="540.2109"/><line style="stroke:#000000;stroke-width:1.5;" x1="790.5254" x2="790.5254" y1="540.2109" y2="553.2109"/><line style="stroke:#000000;stroke-width:1.5;" x1="749.5254" x2="790.5254" y1="553.2109" y2="553.2109"/><polygon fill="#000000" points="759.5254,549.2109,749.5254,553.2109,759.5254,557.2109,755.5254,553.2109" style="stroke:#000000;stroke-width:1;"/><text fill="#000000" font-family="Inter" font-size="11" lengthAdjust="spacing" textLength="119.8452" x="755.5254" y="521.958">Presidio AnalyzerEngine</text><text fill="#000000" font-family="Inter" font-size="11" lengthAdjust="spacing" textLength="148.2637" x="755.5254" y="535.7939">(12 Indian recognizers + NER)</text><line style="stroke:#000000;stroke-width:1.5;" x1="748.5254" x2="790.5254" y1="594.8828" y2="594.8828"/><line style="stroke:#000000;stroke-width:1.5;" x1="790.5254" x2="790.5254" y1="594.8828" y2="607.8828"/><line style="stroke:#000000;stroke-width:1.5;" x1="749.5254" x2="790.5254" y1="607.8828" y2="607.8828"/><polygon fill="#000000" points="759.5254,603.8828,749.5254,607.8828,759.5254,611.8828,755.5254,607.8828" style="stroke:#000000;stroke-width:1;"/><text fill="#000000" font-family="Inter" font-size="11" lengthAdjust="spacing" textLength="84.3745" x="755.5254" y="576.6299">Resolve overlaps</text><text fill="#000000" font-family="Inter" font-size="11" lengthAdjust="spacing" textLength="198.0806" x="755.5254" y="590.4658">Create tokens: [PERSON_1], [ORG_1]...</text><polygon fill="#000000" points="265.5112,631.7188,255.5112,635.7188,265.5112,639.7188,261.5112,635.7188" style="stroke:#000000;stroke-width:1;"/><line style="stroke:#000000;stroke-width:1.5;stroke-dasharray:2.0,2.0;" x1="259.5112" x2="742.5254" y1="635.7188" y2="635.7188"/><text fill="#000000" font-family="Inter" font-size="11" lengthAdjust="spacing" textLength="155.939" x="271.5112" y="631.3018">anonymized_text, pii_mapping{}</text><polygon fill="#000000" points="958.606,673.3906,968.606,677.3906,958.606,681.3906,962.606,677.3906" style="stroke:#000000;stroke-width:1;"/><line style="stroke:#000000;stroke-width:1.5;" x1="254.5112" x2="964.606" y1="677.3906" y2="677.3906"/><text fill="#000000" font-family="Inter" font-size="11" lengthAdjust="spacing" textLength="143.6982" x="261.5112" y="659.1377">create(session_id, anon_text,</text><text fill="#000000" font-family="Inter" font-size="11" lengthAdjust="spacing" textLength="174.8882" x="261.5112" y="672.9736">page_texts, pii_mapping, metadata)</text><polygon fill="#000000" points="1456.5559,715.0625,1466.5559,719.0625,1456.5559,723.0625,1460.5559,719.0625" style="stroke:#000000;stroke-width:1;"/><line style="stroke:#000000;stroke-width:1.5;" x1="980.606" x2="1462.5559" y1="719.0625" y2="719.0625"/><text fill="#000000" font-family="Inter" font-size="11" lengthAdjust="spacing" textLength="132.0537" x="987.606" y="700.8096">INSERT session document</text><text fill="#000000" font-family="Inter" font-size="11" lengthAdjust="spacing" textLength="108.4102" x="987.606" y="714.6455">htoc_status="building"</text><polygon fill="#000000" points="265.5112,742.8984,255.5112,746.8984,265.5112,750.8984,261.5112,746.8984" style="stroke:#000000;stroke-width:1;"/><line style="stroke:#000000;stroke-width:1.5;stroke-dasharray:2.0,2.0;" x1="259.5112" x2="974.606" y1="746.8984" y2="746.8984"/><text fill="#000000" font-family="Inter" font-size="11" lengthAdjust="spacing" textLength="71.543" x="271.5112" y="742.4814">Session object</text><polygon fill="#000000" points="53.0615,798.4063,43.0615,802.4063,53.0615,806.4063,49.0615,802.4063" style="stroke:#000000;stroke-width:1;"/><line style="stroke:#000000;stroke-width:1.5;stroke-dasharray:2.0,2.0;" x1="47.0615" x2="243.5112" y1="802.4063" y2="802.4063"/><text fill="#000000" font-family="Inter" font-size="11" font-weight="bold" lengthAdjust="spacing" textLength="18.353" x="59.0615" y="770.3174">200</text><text fill="#000000" font-family="Inter" font-size="11" lengthAdjust="spacing" textLength="84.3906" x="80.4707" y="770.3174">UploadResponse</text><text fill="#000000" font-family="Inter" font-size="11" lengthAdjust="spacing" textLength="122.3159" x="59.0615" y="784.1533">{session_id, page_count,</text><text fill="#000000" font-family="Inter" font-size="11" lengthAdjust="spacing" textLength="112.084" x="59.0615" y="797.9893">htoc_status="building"}</text><path d="M259,819.4063 L259,848.4063 A4,4 0 0 0 263,852.4063 L449,852.4063 A4,4 0 0 0 453,848.4063 L453,825.4063 L443,815.4063 L263,815.4063 A4,4 0 0 0 259,819.4063 " fill="#FFF7ED" style="stroke:#000000;stroke-width:1;"/><path d="M443,815.4063 L443,823.4063 A2,2 0 0 0 445,825.4063 L453,825.4063 L443,815.4063 " fill="#FFF7ED" style="stroke:#000000;stroke-width:1;"/><text fill="#000000" font-family="Inter" font-size="11" lengthAdjust="spacing" textLength="158.356" x="265" y="831.8252">Response returned immediately.</text><text fill="#000000" font-family="Inter" font-size="11" lengthAdjust="spacing" textLength="173.9482" x="265" y="845.6611">HTOC + BM25 build in background.</text><line style="stroke:#000000;stroke-width:1.5;" x1="1083.2144" x2="1073.2144" y1="877.9141" y2="873.9141"/><line style="stroke:#000000;stroke-width:1.5;" x1="1083.2144" x2="1073.2144" y1="877.9141" y2="881.9141"/><line style="stroke:#000000;stroke-width:1.5;" x1="254.5112" x2="1084.2144" y1="877.9141" y2="877.9141"/><text fill="#000000" font-family="Inter" font-size="11" font-weight="bold" lengthAdjust="spacing" textLength="62.9492" x="261.5112" y="873.4971">background</text><text fill="#000000" font-family="Inter" font-size="11" lengthAdjust="spacing" textLength="109.4575" x="327.5166" y="873.4971">build_tree(page_texts)</text><polygon fill="#000000" points="1354.4087,901.75,1364.4087,905.75,1354.4087,909.75,1358.4087,905.75" style="stroke:#000000;stroke-width:1;"/><line style="stroke:#000000;stroke-width:1.5;" x1="1095.2144" x2="1360.4087" y1="905.75" y2="905.75"/><text fill="#000000" font-family="Inter" font-size="11" lengthAdjust="spacing" textLength="197.812" x="1102.2144" y="901.333">generate_json(page_previews + prompt)</text><polygon fill="#000000" points="1106.2144,929.5859,1096.2144,933.5859,1106.2144,937.5859,1102.2144,933.5859" style="stroke:#000000;stroke-width:1;"/><line style="stroke:#000000;stroke-width:1.5;stroke-dasharray:2.0,2.0;" x1="1100.2144" x2="1365.4087" y1="933.5859" y2="933.5859"/><text fill="#000000" font-family="Inter" font-size="11" lengthAdjust="spacing" textLength="85.5669" x="1112.2144" y="929.1689">HTOC tree JSON</text><line style="stroke:#000000;stroke-width:1.5;" x1="1095.2144" x2="1137.2144" y1="961.4219" y2="961.4219"/><line style="stroke:#000000;stroke-width:1.5;" x1="1137.2144" x2="1137.2144" y1="961.4219" y2="974.4219"/><line style="stroke:#000000;stroke-width:1.5;" x1="1096.2144" x2="1137.2144" y1="974.4219" y2="974.4219"/><polygon fill="#000000" points="1106.2144,970.4219,1096.2144,974.4219,1106.2144,978.4219,1102.2144,974.4219" style="stroke:#000000;stroke-width:1;"/><text fill="#000000" font-family="Inter" font-size="11" lengthAdjust="spacing" textLength="85.2983" x="1102.2144" y="957.0049">Validate + fix tree</text><polygon fill="#000000" points="265.5112,998.2578,255.5112,1002.2578,265.5112,1006.2578,261.5112,1002.2578" style="stroke:#000000;stroke-width:1;"/><line style="stroke:#000000;stroke-width:1.5;stroke-dasharray:2.0,2.0;" x1="259.5112" x2="1089.2144" y1="1002.2578" y2="1002.2578"/><text fill="#000000" font-family="Inter" font-size="11" lengthAdjust="spacing" textLength="53.2114" x="271.5112" y="997.8408">htoc_tree{}</text><line style="stroke:#000000;stroke-width:1.5;" x1="1202.5127" x2="1192.5127" y1="1030.0938" y2="1026.0938"/><line style="stroke:#000000;stroke-width:1.5;" x1="1202.5127" x2="1192.5127" y1="1030.0938" y2="1034.0938"/><line style="stroke:#000000;stroke-width:1.5;" x1="254.5112" x2="1203.5127" y1="1030.0938" y2="1030.0938"/><text fill="#000000" font-family="Inter" font-size="11" font-weight="bold" lengthAdjust="spacing" textLength="62.9492" x="261.5112" y="1025.6768">background</text><text fill="#000000" font-family="Inter" font-size="11" lengthAdjust="spacing" textLength="168.7759" x="327.5166" y="1025.6768">build_index(page_texts, htoc_tree)</text><line style="stroke:#000000;stroke-width:1.5;" x1="1214.5127" x2="1256.5127" y1="1085.6016" y2="1085.6016"/><line style="stroke:#000000;stroke-width:1.5;" x1="1256.5127" x2="1256.5127" y1="1085.6016" y2="1098.6016"/><line style="stroke:#000000;stroke-width:1.5;" x1="1215.5127" x2="1256.5127" y1="1098.6016" y2="1098.6016"/><polygon fill="#000000" points="1225.5127,1094.6016,1215.5127,1098.6016,1225.5127,1102.6016,1221.5127,1098.6016" style="stroke:#000000;stroke-width:1;"/><text fill="#000000" font-family="Inter" font-size="11" lengthAdjust="spacing" textLength="77.6606" x="1221.5127" y="1053.5127">Tokenize pages</text><text fill="#000000" font-family="Inter" font-size="11" lengthAdjust="spacing" textLength="122.896" x="1221.5127" y="1067.3486">Create BM25Okapi index</text><text fill="#000000" font-family="Inter" font-size="11" lengthAdjust="spacing" textLength="110.4028" x="1221.5127" y="1081.1846">Build page&#8594;node map</text><polygon fill="#000000" points="265.5112,1122.4375,255.5112,1126.4375,265.5112,1130.4375,261.5112,1126.4375" style="stroke:#000000;stroke-width:1;"/><line style="stroke:#000000;stroke-width:1.5;stroke-dasharray:2.0,2.0;" x1="259.5112" x2="1208.5127" y1="1126.4375" y2="1126.4375"/><text fill="#000000" font-family="Inter" font-size="11" lengthAdjust="spacing" textLength="62.3906" x="271.5112" y="1122.0205">bm25_data{}</text><polygon fill="#000000" points="958.606,1164.1094,968.606,1168.1094,958.606,1172.1094,962.606,1168.1094" style="stroke:#000000;stroke-width:1;"/><line style="stroke:#000000;stroke-width:1.5;" x1="254.5112" x2="964.606" y1="1168.1094" y2="1168.1094"/><text fill="#000000" font-family="Inter" font-size="11" lengthAdjust="spacing" textLength="122.3213" x="261.5112" y="1149.8564">update_htoc_and_bm25(</text><text fill="#000000" font-family="Inter" font-size="11" lengthAdjust="spacing" textLength="152.1201" x="261.5112" y="1163.6924">htoc_tree, bm25_data, "ready")</text><polygon fill="#000000" points="1456.5559,1205.7813,1466.5559,1209.7813,1456.5559,1213.7813,1460.5559,1209.7813" style="stroke:#000000;stroke-width:1;"/><line style="stroke:#000000;stroke-width:1.5;" x1="980.606" x2="1462.5559" y1="1209.7813" y2="1209.7813"/><text fill="#000000" font-family="Inter" font-size="11" lengthAdjust="spacing" textLength="84.9707" x="987.606" y="1191.5283">UPDATE session</text><text fill="#000000" font-family="Inter" font-size="11" lengthAdjust="spacing" textLength="98.0063" x="987.606" y="1205.3643">htoc_status="ready"</text><polygon fill="#000000" points="265.5112,1219.7813,255.5112,1223.7813,265.5112,1227.7813,261.5112,1223.7813" style="stroke:#000000;stroke-width:1;"/><line style="stroke:#000000;stroke-width:1.5;stroke-dasharray:2.0,2.0;" x1="259.5112" x2="974.606" y1="1223.7813" y2="1223.7813"/><line style="stroke:#CBD5E1;stroke-width:1;stroke-dasharray:2.0,2.0;" x1="15" x2="1506.0132" y1="1232.7813" y2="1232.7813"/><text fill="#000000" font-family="Inter" font-size="11" font-weight="bold" lengthAdjust="spacing" textLength="123.2129" x="20" y="1244.2002">[doc_type = "scanned"]</text><polygon fill="#000000" points="540.4102,1263.4531,550.4102,1267.4531,540.4102,1271.4531,544.4102,1267.4531" style="stroke:#000000;stroke-width:1;"/><line style="stroke:#000000;stroke-width:1.5;" x1="254.5112" x2="546.4102" y1="1267.4531" y2="1267.4531"/><text fill="#000000" font-family="Inter" font-size="11" lengthAdjust="spacing" textLength="159.5806" x="261.5112" y="1263.0361">get page_count only (PyMuPDF)</text><polygon fill="#000000" points="265.5112,1291.2891,255.5112,1295.2891,265.5112,1299.2891,261.5112,1295.2891" style="stroke:#000000;stroke-width:1;"/><line style="stroke:#000000;stroke-width:1.5;stroke-dasharray:2.0,2.0;" x1="259.5112" x2="551.4102" y1="1295.2891" y2="1295.2891"/><text fill="#000000" font-family="Inter" font-size="11" lengthAdjust="spacing" textLength="57.4976" x="271.5112" y="1290.8721">page_count</text><polygon fill="#000000" points="958.606,1332.9609,968.606,1336.9609,958.606,1340.9609,962.606,1336.9609" style="stroke:#000000;stroke-width:1;"/><line style="stroke:#000000;stroke-width:1.5;" x1="254.5112" x2="964.606" y1="1336.9609" y2="1336.9609"/><text fill="#000000" font-family="Inter" font-size="11" lengthAdjust="spacing" textLength="141.8506" x="261.5112" y="1318.708">create(session_id, metadata)</text><text fill="#000000" font-family="Inter" font-size="11" lengthAdjust="spacing" textLength="123.6855" x="261.5112" y="1332.5439">htoc_status="processing"</text><polygon fill="#000000" points="1456.5559,1360.7969,1466.5559,1364.7969,1456.5559,1368.7969,1460.5559,1364.7969" style="stroke:#000000;stroke-width:1;"/><line style="stroke:#000000;stroke-width:1.5;" x1="980.606" x2="1462.5559" y1="1364.7969" y2="1364.7969"/><text fill="#000000" font-family="Inter" font-size="11" lengthAdjust="spacing" textLength="141.8237" x="987.606" y="1360.3799">INSERT session (no text yet)</text><polygon fill="#000000" points="265.5112,1388.6328,255.5112,1392.6328,265.5112,1396.6328,261.5112,1392.6328" style="stroke:#000000;stroke-width:1;"/><line style="stroke:#000000;stroke-width:1.5;stroke-dasharray:2.0,2.0;" x1="259.5112" x2="974.606" y1="1392.6328" y2="1392.6328"/><text fill="#000000" font-family="Inter" font-size="11" lengthAdjust="spacing" textLength="39.1338" x="271.5112" y="1388.2158">Session</text><polygon fill="#000000" points="53.0615,1444.1406,43.0615,1448.1406,53.0615,1452.1406,49.0615,1448.1406" style="stroke:#000000;stroke-width:1;"/><line style="stroke:#000000;stroke-width:1.5;stroke-dasharray:2.0,2.0;" x1="47.0615" x2="243.5112" y1="1448.1406" y2="1448.1406"/><text fill="#000000" font-family="Inter" font-size="11" font-weight="bold" lengthAdjust="spacing" textLength="18.353" x="59.0615" y="1416.0518">200</text><text fill="#000000" font-family="Inter" font-size="11" lengthAdjust="spacing" textLength="84.3906" x="80.4707" y="1416.0518">UploadResponse</text><text fill="#000000" font-family="Inter" font-size="11" lengthAdjust="spacing" textLength="122.3159" x="59.0615" y="1429.8877">{session_id, page_count,</text><text fill="#000000" font-family="Inter" font-size="11" lengthAdjust="spacing" textLength="127.3594" x="59.0615" y="1443.7236">htoc_status="processing"}</text><path d="M259,1465.1406 L259,1508.1406 A4,4 0 0 0 263,1512.1406 L408,1512.1406 A4,4 0 0 0 412,1508.1406 L412,1471.1406 L402,1461.1406 L263,1461.1406 A4,4 0 0 0 259,1465.1406 " fill="#FFF7ED" style="stroke:#000000;stroke-width:1;"/><path d="M402,1461.1406 L402,1469.1406 A2,2 0 0 0 404,1471.1406 L412,1471.1406 L402,1461.1406 " fill="#FFF7ED" style="stroke:#000000;stroke-width:1;"/><text fill="#000000" font-family="Inter" font-size="11" lengthAdjust="spacing" textLength="94.166" x="265" y="1477.5596">Entire pipeline runs</text><text fill="#000000" font-family="Inter" font-size="11" lengthAdjust="spacing" textLength="95.3906" x="265" y="1491.3955">in background task.</text><text fill="#000000" font-family="Inter" font-size="11" lengthAdjust="spacing" textLength="132.6768" x="265" y="1505.2314">Frontend polls /htoc-status.</text><line style="stroke:#000000;stroke-width:1.5;" x1="545.4102" x2="535.4102" y1="1537.4844" y2="1533.4844"/><line style="stroke:#000000;stroke-width:1.5;" x1="545.4102" x2="535.4102" y1="1537.4844" y2="1541.4844"/><line style="stroke:#000000;stroke-width:1.5;" x1="254.5112" x2="546.4102" y1="1537.4844" y2="1537.4844"/><text fill="#000000" font-family="Inter" font-size="11" font-weight="bold" lengthAdjust="spacing" textLength="62.9492" x="261.5112" y="1533.0674">background</text><text fill="#000000" font-family="Inter" font-size="11" lengthAdjust="spacing" textLength="115.5698" x="327.5166" y="1533.0674">_extract_pdf_scanned()</text><path d="M488.144,1552.4844 L552.3579,1552.4844 L552.3579,1558.3203 L542.3579,1568.3203 L484.144,1568.3203 L484.144,1556.4844 A4,4 0 0 1 488.144,1552.4844 " fill="#F1F5F9" style="stroke:#CBD5E1;stroke-width:1;"/><rect fill="none" height="85.3438" rx="4" ry="4" style="stroke:#CBD5E1;stroke-width:1;" width="956.9546" x="484.144" y="1552.4844"/><text fill="#000000" font-family="Inter" font-size="11" font-weight="bold" lengthAdjust="spacing" textLength="23.2139" x="499.144" y="1564.9033">loop</text><text fill="#000000" font-family="Inter" font-size="11" font-weight="bold" lengthAdjust="spacing" textLength="163.2114" x="567.3579" y="1565.9033">[each page (max 2 concurrent)]</text><polygon fill="#000000" points="1354.4087,1597.9922,1364.4087,1601.9922,1354.4087,1605.9922,1358.4087,1601.9922" style="stroke:#000000;stroke-width:1;"/><line style="stroke:#000000;stroke-width:1.5;" x1="557.4102" x2="1360.4087" y1="1601.9922" y2="1601.9922"/><text fill="#000000" font-family="Inter" font-size="11" lengthAdjust="spacing" textLength="57.46" x="564.4102" y="1583.7393">Vision OCR</text><text fill="#000000" font-family="Inter" font-size="11" lengthAdjust="spacing" textLength="142.7744" x="564.4102" y="1597.5752">(PNG image + language hint)</text><polygon fill="#000000" points="568.4102,1625.8281,558.4102,1629.8281,568.4102,1633.8281,564.4102,1629.8281" style="stroke:#000000;stroke-width:1;"/><line style="stroke:#000000;stroke-width:1.5;stroke-dasharray:2.0,2.0;" x1="562.4102" x2="1365.4087" y1="1629.8281" y2="1629.8281"/><text fill="#000000" font-family="Inter" font-size="11" lengthAdjust="spacing" textLength="66.0322" x="574.4102" y="1625.4111">extracted text</text><polygon fill="#000000" points="265.5112,1660.6641,255.5112,1664.6641,265.5112,1668.6641,261.5112,1664.6641" style="stroke:#000000;stroke-width:1;"/><line style="stroke:#000000;stroke-width:1.5;stroke-dasharray:2.0,2.0;" x1="259.5112" x2="551.4102" y1="1664.6641" y2="1664.6641"/><text fill="#000000" font-family="Inter" font-size="11" lengthAdjust="spacing" textLength="59.9307" x="271.5112" y="1660.2471">page_texts[]</text><polygon fill="#000000" points="731.5254,1688.5,741.5254,1692.5,731.5254,1696.5,735.5254,1692.5" style="stroke:#000000;stroke-width:1;"/><line style="stroke:#000000;stroke-width:1.5;" x1="254.5112" x2="737.5254" y1="1692.5" y2="1692.5"/><text fill="#000000" font-family="Inter" font-size="11" lengthAdjust="spacing" textLength="99.6499" x="261.5112" y="1688.083">anonymize(ocr_text)</text><polygon fill="#000000" points="265.5112,1716.3359,255.5112,1720.3359,265.5112,1724.3359,261.5112,1720.3359" style="stroke:#000000;stroke-width:1;"/><line style="stroke:#000000;stroke-width:1.5;stroke-dasharray:2.0,2.0;" x1="259.5112" x2="742.5254" y1="1720.3359" y2="1720.3359"/><text fill="#000000" font-family="Inter" font-size="11" lengthAdjust="spacing" textLength="148.5913" x="271.5112" y="1715.9189">anonymized_text, pii_mapping</text><polygon fill="#000000" points="963.606,1758.0078,973.606,1762.0078,963.606,1766.0078,967.606,1762.0078" style="stroke:#000000;stroke-width:1;"/><line style="stroke:#000000;stroke-width:1.5;" x1="254.5112" x2="969.606" y1="1762.0078" y2="1762.0078"/><text fill="#000000" font-family="Inter" font-size="11" lengthAdjust="spacing" textLength="148.6128" x="261.5112" y="1743.7549">update(anon_text, page_texts,</text><text fill="#000000" font-family="Inter" font-size="11" lengthAdjust="spacing" textLength="177.5039" x="261.5112" y="1757.5908">pii_mapping, htoc_status="building")</text><polygon fill="#000000" points="1456.5559,1785.8438,1466.5559,1789.8438,1456.5559,1793.8438,1460.5559,1789.8438" style="stroke:#000000;stroke-width:1;"/><line style="stroke:#000000;stroke-width:1.5;" x1="975.606" x2="1462.5559" y1="1789.8438" y2="1789.8438"/><text fill="#000000" font-family="Inter" font-size="11" lengthAdjust="spacing" textLength="84.9707" x="982.606" y="1785.4268">UPDATE session</text><line style="stroke:#000000;stroke-width:1.5;" x1="1088.2144" x2="1078.2144" y1="1817.6797" y2="1813.6797"/><line style="stroke:#000000;stroke-width:1.5;" x1="1088.2144" x2="1078.2144" y1="1817.6797" y2="1821.6797"/><line style="stroke:#000000;stroke-width:1.5;" x1="254.5112" x2="1089.2144" y1="1817.6797" y2="1817.6797"/><text fill="#000000" font-family="Inter" font-size="11" font-weight="bold" lengthAdjust="spacing" textLength="62.9492" x="261.5112" y="1813.2627">background</text><text fill="#000000" font-family="Inter" font-size="11" lengthAdjust="spacing" textLength="109.4575" x="327.5166" y="1813.2627">build_tree(page_texts)</text><polygon fill="#000000" points="1354.4087,1841.5156,1364.4087,1845.5156,1354.4087,1849.5156,1358.4087,1845.5156" style="stroke:#000000;stroke-width:1;"/><line style="stroke:#000000;stroke-width:1.5;" x1="1090.2144" x2="1360.4087" y1="1845.5156" y2="1845.5156"/><text fill="#000000" font-family="Inter" font-size="11" lengthAdjust="spacing" textLength="77.0483" x="1097.2144" y="1841.0986">generate_json()</text><polygon fill="#000000" points="1101.2144,1869.3516,1091.2144,1873.3516,1101.2144,1877.3516,1097.2144,1873.3516" style="stroke:#000000;stroke-width:1;"/><line style="stroke:#000000;stroke-width:1.5;stroke-dasharray:2.0,2.0;" x1="1095.2144" x2="1365.4087" y1="1873.3516" y2="1873.3516"/><text fill="#000000" font-family="Inter" font-size="11" lengthAdjust="spacing" textLength="53.1738" x="1107.2144" y="1868.9346">HTOC tree</text><line style="stroke:#000000;stroke-width:1.5;" x1="1207.5127" x2="1197.5127" y1="1901.1875" y2="1897.1875"/><line style="stroke:#000000;stroke-width:1.5;" x1="1207.5127" x2="1197.5127" y1="1901.1875" y2="1905.1875"/><line style="stroke:#000000;stroke-width:1.5;" x1="254.5112" x2="1208.5127" y1="1901.1875" y2="1901.1875"/><text fill="#000000" font-family="Inter" font-size="11" font-weight="bold" lengthAdjust="spacing" textLength="62.9492" x="261.5112" y="1896.7705">background</text><text fill="#000000" font-family="Inter" font-size="11" lengthAdjust="spacing" textLength="62.9814" x="327.5166" y="1896.7705">build_index()</text><polygon fill="#000000" points="963.606,1938.8594,973.606,1942.8594,963.606,1946.8594,967.606,1942.8594" style="stroke:#000000;stroke-width:1;"/><line style="stroke:#000000;stroke-width:1.5;" x1="254.5112" x2="969.606" y1="1942.8594" y2="1942.8594"/><text fill="#000000" font-family="Inter" font-size="11" lengthAdjust="spacing" textLength="147.3828" x="261.5112" y="1924.6064">update(htoc_tree, bm25_data,</text><text fill="#000000" font-family="Inter" font-size="11" lengthAdjust="spacing" textLength="101.6694" x="261.5112" y="1938.4424">htoc_status="ready")</text><polygon fill="#000000" points="1456.5559,1966.6953,1466.5559,1970.6953,1456.5559,1974.6953,1460.5559,1970.6953" style="stroke:#000000;stroke-width:1;"/><line style="stroke:#000000;stroke-width:1.5;" x1="975.606" x2="1462.5559" y1="1970.6953" y2="1970.6953"/><text fill="#000000" font-family="Inter" font-size="11" lengthAdjust="spacing" textLength="84.9707" x="982.606" y="1966.2783">UPDATE session</text><rect fill="#FFFFFF" height="3" rx="4" ry="4" style="stroke:#FFFFFF;stroke-width:1;" width="1511.0132" x="5" y="2005.6133"/><line style="stroke:#CBD5E1;stroke-width:0.5;" x1="5" x2="1516.0132" y1="2005.6133" y2="2005.6133"/><line style="stroke:#CBD5E1;stroke-width:0.5;" x1="5" x2="1516.0132" y1="2008.6133" y2="2008.6133"/><rect fill="#FFFFFF" height="21.8359" rx="4" ry="4" style="stroke:#CBD5E1;stroke-width:1;" width="108.7031" x="706.155" y="1995.6953"/><text fill="#000000" font-family="Inter" font-size="11" font-weight="bold" lengthAdjust="spacing" textLength="91.647" x="712.155" y="2011.1143">Polling (frontend)</text><polygon fill="#000000" points="237.5112,2043.3672,247.5112,2047.3672,237.5112,2051.3672,241.5112,2047.3672" style="stroke:#000000;stroke-width:1;"/><line style="stroke:#000000;stroke-width:1.5;" x1="42.0615" x2="243.5112" y1="2047.3672" y2="2047.3672"/><text fill="#000000" font-family="Inter" font-size="11" lengthAdjust="spacing" textLength="139.3906" x="49.0615" y="2042.9502">GET /documents/htoc-status</text><polygon fill="#000000" points="963.606,2071.2031,973.606,2075.2031,963.606,2079.2031,967.606,2075.2031" style="stroke:#000000;stroke-width:1;"/><line style="stroke:#000000;stroke-width:1.5;" x1="249.5112" x2="969.606" y1="2075.2031" y2="2075.2031"/><text fill="#000000" font-family="Inter" font-size="11" lengthAdjust="spacing" textLength="74.5938" x="256.5112" y="2070.7861">get(session_id)</text><polygon fill="#000000" points="1456.5559,2099.0391,1466.5559,2103.0391,1456.5559,2107.0391,1460.5559,2103.0391" style="stroke:#000000;stroke-width:1;"/><line style="stroke:#000000;stroke-width:1.5;" x1="975.606" x2="1462.5559" y1="2103.0391" y2="2103.0391"/><text fill="#000000" font-family="Inter" font-size="11" lengthAdjust="spacing" textLength="66.0161" x="982.606" y="2098.6221">FIND session</text><polygon fill="#000000" points="986.606,2126.875,976.606,2130.875,986.606,2134.875,982.606,2130.875" style="stroke:#000000;stroke-width:1;"/><line style="stroke:#000000;stroke-width:1.5;stroke-dasharray:2.0,2.0;" x1="980.606" x2="1467.5559" y1="2130.875" y2="2130.875"/><text fill="#000000" font-family="Inter" font-size="11" lengthAdjust="spacing" textLength="58.0884" x="992.606" y="2126.458">session doc</text><polygon fill="#000000" points="260.5112,2154.7109,250.5112,2158.7109,260.5112,2162.7109,256.5112,2158.7109" style="stroke:#000000;stroke-width:1;"/><line style="stroke:#000000;stroke-width:1.5;stroke-dasharray:2.0,2.0;" x1="254.5112" x2="974.606" y1="2158.7109" y2="2158.7109"/><text fill="#000000" font-family="Inter" font-size="11" lengthAdjust="spacing" textLength="39.1338" x="266.5112" y="2154.2939">Session</text><polygon fill="#000000" points="53.0615,2182.5469,43.0615,2186.5469,53.0615,2190.5469,49.0615,2186.5469" style="stroke:#000000;stroke-width:1;"/><line style="stroke:#000000;stroke-width:1.5;stroke-dasharray:2.0,2.0;" x1="47.0615" x2="248.5112" y1="2186.5469" y2="2186.5469"/><text fill="#000000" font-family="Inter" font-size="11" lengthAdjust="spacing" textLength="144.9336" x="59.0615" y="2182.1299">{status, has_htoc, has_bm25}</text><!--SRC=[lLXhRjj64FxFKqmLe93yZ9IuSGGuW1waww2n1Sj92yG1iIPNqiRKBhjSsbQ30FtL0nIzHO_GVpbAJjBPvV8XYOhZ1gWDGzJkpBSpipFV3FsTcj4vXJWYZ3l9DUCnaMGELoIudagHyd0W8Y7XaUVgtuf4I2SaZPGdk3ebY7325PNr-sFs6uLskxAPp4WeRXcVmeH42Qtis3Cbfn8EgnhqrvJoWFQa5BSNCnPSSveaqDuxg14Q4QbOm6B2LL_8a4hhn0zFdpqzxD-ZiERveTVp1ZLAFx49_d6wTCJpfxqd_Jh3Zn4pNX8Tz8S7RdkZw9eTRU_0UruZFcGt357hi1t5L4HXQsieWdHEkOBNSIH825uaRhUsuFFlVy6GJPaY4NmFuu1mJaCO3Jt78O52eCOWOgZM0990zWYFtCTU1rCXBcC6ZHp_NAIO1fVyqz_xeLrAFlrZrBCjU3JikxqrTHfJ7g8pZ2PQ-UNF5t2S4XbQtLwgPYO7dmoUrH-CDvXGQOIpHxJpq3jmdo-BZqvEUbpmnHnJqfWvaZHX8HFs8DolLnnZjZ71nrJUi81gpLU2JyMmRnNjVhtoZnTdWtxAej1QgB_NI_PVTGx6bCXWPWJrrth1Opfdd6LNegt9laDdxm3lbYGpQvPTnj2v7RVZX4IHAv9GQ5ZhZT2mNmWuHqSmEXjVm3w9sVvDkxp5_JJBdACZnx6PiFiYlzHkfZHXc6pRW3g-MiJwKGJIZmYVfcHATKgn6wAerN8SguquveAxCANA3r8f4TrFyHARVOm5IYXnJNch1D3YZj4fTKCQY902fexTgPgdmNmw9onoGheCKx6Y47z38XPg2UCHlLEKwzkzv4siZVtXsU0N43nQjB1C8bNwUmIDCAkcXkC0_fJGDYcx6aoY0Jv95Zne1aYFwEnEgTWoYeM9cPvPin1LiD7YLOeM5QWGKxaROwn1uSgILjMzIHf5lfRO0Iri7fEtxuny9Jpsx5LFi4IwGF8gQXPWgvQVd6G6e7oXbfSRz3Y95bY3BfyYXM9Wsnri8I4Z72HUv9Jh0aqmWqxTyzOwpZbDH7H3GTnG6P4OIMCWgJxLP4hIXRSZztnyTkgtt-t0sxFpOtpOszihWQhXA7m9yw0mviz976E3-l1nBIherqf8ykBlGc2iQ2RPWi_27OEUuLxoCjfBX-p0d2gYYtCbXXROBEQ7u7bOi5quEHsxvnTWZuAyK2_vJ64-9egeD3bgN6dQmICQonXLz_D5SVMU1chLtTo49PTHtN905vjBv_5Zx2LPPy6BYGLFy4O_L8DW70-mc-aer1luCJk22pnKikbCWPWKJSFpl6Vkq0WOE-mfc2igbRfdiVcSOlOe6Yts2Z73iziPYvfpWF7AQ9C9OkCnXwvSwejCM_jNQg2R1iTNaj9cUPihrxR4xuKX63HBnvheSC11KVzz8dW654jwm-YjplbOYdbiwycgw91RWyo7DW1UOeOluLk9WhwsaS3kZ6n5h7htvYhq_dgUQ-6rc9XGReW9mmv-rwocU86-4f-bjgPtpC9k0N-XYrWFZHgih6szUtQDZGdCKPVSz5GZzFcFFxbcVooe2c3Lqwjvvy3N9RRkgHRUND9fh4Ff6ry83tqDrBH9h7tRAQ6Hnj7ISD5uG1c_7Wrx5svUnYl5aQ5jADsDbKfnf5vgIaass6rkIjXtAoLgUXiqRNDfRMmZfSQ32B7WkXLdCUi3BPQJrNzXmIONflN1Wjhw-HBb_TzSL_7m8MpdSiKa5WEBQOJD4cJAas9pYT50aUIwv3zFcl42IqH4KGBxsfZTp9XxkA_8Z9LAz_Fn9GudlashPkt8KjItsOo4Y043FJFHWUQSt447SFgnqrwhiBcSSWgoVCFC3PuDplK0TdgCPAz1jY6VB676gX0LobmTkx1J59CHEkzyERU_QIxIesyv5ZrewBYFZ9hbJ54nLCyNrPcYlissleA5lhqLtjFmxcrj3-yxhNk3LilOjOJxTJ4o-LD9Y_ojHhz2ORtf_suq9xO2MvlUcuvTVDSgNx8g5UhKkO94NU7IbhDgetToEYmin9NT9UtAhEXyaHVhkEz3PXRc5KbCDyoUT2W_Ely2]--></g></svg>